<?xml version="1.0" encoding="utf-8"?>
<!-- Generator: Adobe Illustrator 21.0.2, SVG Export Plug-In . SVG Version: 6.00 Build 0)  -->
<svg id="Gome7" version="1.1" id="图层_1" xmlns="http://www.w3.org/2000/svg" xmlns:xlink="http://www.w3.org/1999/xlink" x="0px" y="0px"
	 viewBox="0 0 640 1008" style="enable-background:new 0 0 640 1008;" xml:space="preserve">
<style type="text/css">
	<!--.st0{fill:none;stroke:#E60039;stroke-width:3;stroke-miterlimit:10;}-->
	<!--.st1{fill:none;stroke:#E60039;stroke-width:3;stroke-linecap:round;stroke-linejoin:round;stroke-miterlimit:10;}-->
	<!--.st2{fill:none;stroke:#E60039;stroke-width:3;stroke-miterlimit:1;}-->
	<!--.st3{fill:none;stroke:#E60039;stroke-width:3;stroke-miterlimit:1;}-->

	.st0{fill:none;stroke:#E60039;stroke-width:3;stroke-miterlimit:10;}
	.st1{fill:none;stroke:#E60039;stroke-width:3;stroke-linecap:round;stroke-linejoin:round;stroke-miterlimit:10;}
	.st2{fill:#E60039;}
	.st3{fill:#C30D23;}
</style>
<path class="st0" d="M315.5-17.9v51.7c0,12.4,10.1,22.5,22.5,22.5l3.5,0h51h7.5c12.4,0,22.5,10.1,22.5,22.5v11.5
	c0,12.4-10.1,22.5-22.5,22.5h-25.5H338H234h-40.8h-89.2c-12.4,0-22.5,10.1-22.5,22.5V169"/>
<g>
	<path id="XMLID_216_" class="st1" d="M102.5,122.2c0.9-0.2,1.7-0.2,2.6-0.2"/>
	<path id="XMLID_215_" class="st1" d="M90.2,136.8c0-5.9,3.5-11,8.5-13.4"/>
</g>
<g>
	<line class="st0" x1="126.5" y1="206.8" x2="137.6" y2="206.8"/>
	<line class="st0" x1="126.5" y1="216.6" x2="137.6" y2="216.6"/>
</g>
<polyline class="st0" points="135.2,199.5 146.9,211.7 135.2,223.9 "/>
<polyline class="st0" points="282.8,199.5 294.6,211.7 282.8,223.9 "/>
<g>
	<line class="st0" x1="274.1" y1="206.8" x2="285.3" y2="206.8"/>
	<line class="st0" x1="274.1" y1="216.6" x2="285.3" y2="216.6"/>
</g>
<polyline class="st0" points="458.2,199.5 469.9,211.7 458.2,223.9 "/>
<g>
	<line class="st0" x1="449.5" y1="206.8" x2="460.6" y2="206.8"/>
	<line class="st0" x1="449.5" y1="216.6" x2="460.6" y2="216.6"/>
</g>
<path data-async class="st0" d="M88,293v180c0,9.7,7.9,17.6,17.6,17.6h18.9h364H521c10.4,0,18.8-8.4,18.8-18.8v-14.3V456V309"/>
<path class="st0" d="M76.4,293v176v9.2c0,12.4,10.1,22.5,22.5,22.5h25.6h363.6h39c12.4,0,22.5-10.1,22.5-22.5V461v-5V309"/>
<polyline class="st0" points="532.5,309.4 544.7,297.7 556.9,309.4 "/>
<line class="st1" x1="99.3" y1="455.3" x2="152" y2="455.3"/>
<line class="st1" x1="212.7" y1="455.3" x2="267.4" y2="455.3"/>
<polyline class="st0" points="97.9,449.7 92.5,455.3 97.9,460.9 "/>
<polyline class="st0" points="268.5,449.7 273.9,455.3 268.5,460.9 "/>
<g id="dash">

<line class="st0" x1="280.5" y1="239" x2="280.5" y2="243"/>
<line class="st0" x1="280.5" y1="253" x2="280.5" y2="261"/>
<line class="st0" x1="280.5" y1="269" x2="280.5" y2="277"/>
<line class="st0" x1="280.5" y1="285" x2="280.5" y2="293"/>
<line class="st0" x1="280.5" y1="301" x2="280.5" y2="309"/>
<line class="st0" x1="280.5" y1="317" x2="280.5" y2="325"/>
<line class="st0" x1="280.5" y1="333" x2="280.5" y2="341"/>
<line class="st0" x1="280.5" y1="349" x2="280.5" y2="357"/>
<line class="st0" x1="280.5" y1="366" x2="280.5" y2="374"/>
<line class="st0" x1="280.5" y1="382" x2="280.5" y2="390"/>
<line class="st0" x1="280.5" y1="398" x2="280.5" y2="406"/>
<line class="st0" x1="280.5" y1="414" x2="280.5" y2="422"/>
<line class="st0" x1="280.5" y1="430" x2="280.5" y2="438"/>
<line class="st0" x1="280.5" y1="446" x2="280.5" y2="454"/>
<line class="st0" x1="280.5" y1="462" x2="280.5" y2="470"/>
<line class="st0" x1="280.5" y1="480" x2="280.5" y2="484"/>
</g>
<line class="st1" x1="293.3" y1="455.3" x2="379.3" y2="455.3"/>
<line class="st1" x1="438.7" y1="455.3" x2="526.7" y2="455.3"/>
<polyline class="st0" points="292.6,449.7 287.2,455.3 292.6,460.9 "/>
<polyline class="st0" points="527.9,449.7 533.3,455.3 527.9,460.9 "/>
<line class="st0" x1="576.1" y1="493" x2="576.1" y2="486"/>
<path class="st0" d="M576.1,497v18.4c0,12-9.7,21.7-21.7,21.7H520H188h-39.7h-40.4c-22.1,0-40.1,18-40.1,40.1
	c0,22.1,18,40.1,40.1,40.1h30.2c10.6,0,19.2,8.6,19.2,19.2c0,10.6-8.6,19.2-19.2,19.2h-6.9"/>
	<g id="disk">
<circle data-async id="XMLID_312_" class="st1" cx="107.9" cy="577.3" r="31.2"/>
<circle data-async id="XMLID_310_" class="st1" cx="108.4" cy="577.4" r="3.3"/>
<circle data-async id="XMLID_309_" class="st1" cx="108.4" cy="577.4" r="10.4"/>
<path data-async id="XMLID_308_" class="st1" d="M123.5,570.4c-1.3-2.7-3.2-5.1-5.7-6.8"/>
<path data-async id="XMLID_307_" class="st1" d="M128.3,569.7c-1.8-4.7-5.2-8.5-9.5-10.9"/>
<path data-async id="XMLID_306_" class="st1" d="M133.3,569.7c-2.2-7.3-7.6-13.2-14.5-16.2"/>
<path data-async id="XMLID_305_" class="st1" d="M92.3,584.2c1.3,2.7,3.2,5.1,5.7,6.8"/>
<path data-async id="XMLID_304_" class="st1" d="M87.6,584.9c1.8,4.7,5.2,8.5,9.5,10.9"/>
<path data-async id="XMLID_303_" class="st1" d="M82.6,584.9c2.2,7.3,7.6,13.2,14.5,16.2"/>
<line data-async id="XMLID_302_" class="st1" x1="107.9" y1="546.1" x2="107.9" y2="553.5"/>
<line id="XMLID_301_" class="st1" x1="107.9" y1="608.5" x2="107.9" y2="600.4"/>
	</g>
<line id="XMLID_298_" class="st1" x1="131.1" y1="649.3" x2="131.1" y2="663.4"/>
<line id="XMLID_297_" class="st1" x1="124" y1="649.3" x2="124" y2="663.4"/>
<path id="XMLID_296_" class="st1" d="M124,656.3h-19.4c0,0-28.9-1.8-28.9,25.5v41"/>
<line id="XMLID_295_" class="st1" x1="75.7" y1="732.9" x2="75.7" y2="749.1"/>
<line id="XMLID_294_" class="st1" x1="75.7" y1="759.4" x2="75.7" y2="766.2"/>
<path id="XMLID_292_" class="st1" d="M99.9,662.7c0,0-11.2,1.1-15.6,11.4"/>
<line id="XMLID_293_" class="st1" x1="82.6" y1="680.8" x2="82.6" y2="689.6"/>
<line id="XMLID_287_" class="st1" x1="156.5" y1="704.1" x2="156.5" y2="695.3"/>
<path id="XMLID_181_" class="st1" d="M156.5,713.6v55.7c0,8.3-6.7,14.9-14.9,14.9c-8.3,0-14.9-6.7-14.9-14.9v-64.8
	c0-8.3-6.7-14.9-14.9-14.9s-14.9,6.7-14.9,14.9l0,76.6c0,0-1.5,33.2,35.5,33.2c8.2,0,18.2,0,18.2,0s19.7,0.3,19.7,18.6
	s-16.3,19.4-18.8,19.4h-25.6"/>
<path id="XMLID_285_" class="st1" d="M162.5,829.7c0,0,1.4,8.4-4.5,12.8"/>
<path id="XMLID_286_" class="st1" d="M151.4,844.6c-1.2,0.4-2.6,0.6-4.2,0.7"/>
<path class="st0" d="M119.4,852.9c-11.1,0-20.1,9-20.1,20.1v28.2c0,12.5,10.1,22.6,22.6,22.6h140.7H427h18.4
	c9.5,0,17.2-7.7,17.2-17.2v-32.6"/>
<line class="st1" x1="462.6" y1="867.3" x2="462.6" y2="870.3"/>
<path class="st0" d="M462.6,865c0-10,8.1-18.2,18.2-18.2c10,0,18.2,8.1,18.2,18.2"/>

<path class="st0" d="M499,868.5c-0.1,29.2-0.1,87.2,0,139.8"></path>
</svg>
