<?xml version="1.0" encoding="utf-8"?>
<!-- Generator: Adobe Illustrator 21.0.2, SVG Export Plug-In . SVG Version: 6.00 Build 0)  -->
<svg id="Gome5" version="1.1" id="图层_1" xmlns="http://www.w3.org/2000/svg" xmlns:xlink="http://www.w3.org/1999/xlink" x="0px" y="0px"
	 viewBox="0 0 640 1008" style="enable-background:new 0 0 640 1008;" xml:space="preserve">
<style type="text/css">
	.st0{fill:none;stroke:#E60039;stroke-width:3;stroke-miterlimit:10;}
	.st1{fill:#FFFFFF;stroke:#E60039;stroke-width:3;stroke-miterlimit:10;}
	.st2{fill:none;stroke:#E60039;stroke-width:3;stroke-linecap:round;stroke-linejoin:round;stroke-miterlimit:10;}
	<!-- .st3{fill:#C30D23;}-->
	.st3{fill:none;stroke:#E60039;stroke-width:3;stroke-miterlimit:1;}
</style>
<path class="st0" d="M323.9,603c-9,9-21.1,14-33.8,14c-0.4,0-0.8,0-1.2,0.1v-12.7L268,625.2l20.8,20.8v-12.4
	c0.4,0.1,0.8,0.1,1.2,0.1c17.2,0,33.4-6.7,45.6-18.9"/>
<g id="line">
	<path class="st0" d="M250.1,626H124.6c-11.9,0-21.6,9.7-21.6,21.6v75"/>
	<circle class="st1" cx="102.7" cy="722.5" r="4.7"/>
	<path class="st0" d="M103,726.3c0,29.7,0,60.7,0,90.7"/>
	<circle class="st1" cx="102.7" cy="816.8" r="4.7"/>
	<path class="st0" d="M103,821.1c0,21.9-1,43.9,1,66.9c2,10,10,17,20,18c49,0,97,3,146-2c6,0,9-8,10-14c1-68-2-135,1-203
		c0-7,6-12,13-13c5,0,11,1,14,6c6,13,2,29,3.1,42.5"/>
	<circle class="st1" cx="310.7" cy="722.5" r="4.7"/>
	<path class="st0" d="M311.1,726.2c-0.1,14.8-0.1,28.8,0,43.5"/>
	<circle class="st1" cx="310.7" cy="769" r="4.7"/>
	<path class="st0" d="M311.1,773.1c-0.1,14.9-0.1,28.9,0,43.6"/>
	<circle class="st1" cx="310.7" cy="817" r="4.7"/>
	<path class="st0" d="M311.1,819.8c-0.1,29.2-0.1,97.2,0,189.8"/>
</g>

</svg>
