<?xml version="1.0" encoding="utf-8"?>
<!-- Generator: Adobe Illustrator 21.0.2, SVG Export Plug-In . SVG Version: 6.00 Build 0)  -->
<svg id="Gome4" version="1.1" id="图层_1" xmlns="http://www.w3.org/2000/svg" xmlns:xlink="http://www.w3.org/1999/xlink" x="0px" y="0px"
	 viewBox="0 0 640 1008" style="enable-background:new 0 0 640 1008;" xml:space="preserve">
<style type="text/css">
	.st0{fill:none;stroke:#E60039;stroke-width:3;stroke-miterlimit:10;}
	.st1{fill:none;stroke:#E60039;stroke-width:3;stroke-linecap:round;stroke-linejoin:round;stroke-miterlimit:10;}
	.st2{fill-rule:evenodd;clip-rule:evenodd;fill:none;stroke:#E60039;stroke-width:3;stroke-miterlimit:10;}
	.st3{fill:#FFFFFF;stroke:#E60039;stroke-width:3;stroke-miterlimit:10;}
	.st4{fill:none;stroke:#E60039;stroke-width:3;stroke-miterlimit:1;}
</style>
<circle class="st0" cx="426.2" cy="169.2" r="8.9"/>
<path class="st0" d="M444,169.2h89h11.5c13.8,0,25,11.2,25,25v37.5c0,13.8-11.2,25-25,25H527h-9.3H327.2"/>
<polyline class="st0" points="319,249.7 312.1,257.3 319,265 "/>
<path class="st0" d="M298.4,256.7H131.7l-19.2,0h-41c-13.8,0-25,11.2-25,25v96.5c0,13.8,11.2,25,25,25H111"/>
<g>
	<path id="XMLID_184_" class="st1" d="M72.4,264.6c1.2-0.2,2.4-0.3,3.6-0.3"/>
	<path data-async id="XMLID_183_" class="st1" d="M55.8,284.5c0-8.1,4.7-15,11.5-18.3"/>
</g>
<g id="seed">
	<polyline class="st0" points="99.5,278.1 99.5,293.9 136.9,293.9 	"/>
	<path class="st0" d="M107.7,297c0,0-1.4,12.6,5.4,24.3c6.8,11.7,14,21.2,16.2,25.2c2.3,4.1,2.3,12.2,5,10.4s4.5-8.6,4.1-11.7
		s-2.7-9.5,1.4-10.8c4.1-1.4,9.5-1.8,12.6,1.4s6.3,8.6,6.3,9.9c0,1.4-5.4,9-5.4,9"/>
	<path class="st0" d="M155,361c0,0,5.4-5,6.8-6.8s4.5-8.1,4.5-9.9c0-1.8-4.1-10.4-4.1-10.4s-1.4-3.2,2.3-1.4
		c3.6,1.8,7.2,3.2,8.6,5.4c1.4,2.3,3.2,12.2,11.3,9.9l-5.4-14.9c0,0-2.7-4.5-5.4-5.9c-2.7-1.4-8.6-4.1-8.6-4.1s1.8-1.4,5-1.4
		s7.7,3.2,9,4.5c1.4,1.4,5.4,6.8,8.6,6.8s-0.5-4.1-1.4-5.9c-0.9-1.8-5.4-8.1-7.7-10.4c-2.3-2.3-5.9-3.6-9.9-4.1
		c-4.1-0.5-8.6-0.9-8.6-0.9s0.9-1.8,3.2-2.7c2.3-0.9,4.1-1.8,6.8,0s6.8,3.2,6.8,1.8s-2.7-4.1-4.5-5.9c-1.8-1.8-7.2-3.6-9-3.6
		c-1.8,0-11.3,3.6-11.3,3.6l-21.2-9.5"/>
	<path class="st0" d="M144.4,375c0,0,8.6-3.2,8.6-14s-8-17.1-8-17.1s-8,6.3-8,17.1s8.6,14,8.6,14"/>
	<line class="st0" x1="144.6" y1="345.1" x2="144.6" y2="371.2"/>
</g>
<line class="st0" x1="182" y1="403.2" x2="198.1" y2="403.2"/>
<polyline class="st0" points="199.6,396.1 206.5,403.8 199.6,411.5 "/>
<line class="st0" x1="210.1" y1="403.2" x2="236" y2="403.2"/>
<g id="tree1">
	<g>
		<path data-async class="st0" d="M273.9,350.2c4,4,4,10.5,0,14.5l14.5-14.5C284.4,346.2,277.9,346.2,273.9,350.2z"/>
		<path data-async class="st0" d="M273.9,350.2c-4-4-10.5-4-14.5,0l14.5,14.5C269.9,360.7,269.9,354.2,273.9,350.2z"/>
		<path data-async class="st0" d="M273.9,350.2c-4,4-4,10.5,0,14.5C277.9,360.7,277.9,354.2,273.9,350.2z"/>
	</g>
	<g>
		<path data-async class="st2" d="M281.7,296.8c0,4.6-3.7,8.3-8.3,8.3s-8.3-3.7-8.3-8.3c0-4.6,8.3-18.3,8.3-18.3S281.7,292.2,281.7,296.8z"/>
		<path data-async class="st2" d="M273.7,301.3c-3.1,0-5.5-2.5-5.5-5.5"/>
	</g>
	<g>
		<path data-async class="st2" d="M261.1,325.3c0,4.6-3.7,8.3-8.3,8.3s-8.3-3.7-8.3-8.3c0-4.6,8.3-18.3,8.3-18.3S261.1,320.7,261.1,325.3z"/>
		<path data-async class="st2" d="M253.1,329.8c-3.1,0-5.5-2.5-5.5-5.5"/>
	</g>
	<g>
		<path data-async class="st2" d="M303.3,325.8c0,4.6-3.7,8.3-8.3,8.3s-8.3-3.7-8.3-8.3c0-4.6,8.3-18.3,8.3-18.3S303.3,321.3,303.3,325.8z"/>
		<path data-async class="st2" d="M295.2,330.4c-3.1,0-5.5-2.5-5.5-5.5"/>
	</g>
	<line class="st0" x1="273.9" y1="364.7" x2="273.9" y2="381.6"/>
</g>
<line class="st0" x1="301.9" y1="403.2" x2="318" y2="403.2"/>
<polyline class="st0" points="319.6,396.1 326.4,403.8 319.6,411.5 "/>
<line class="st0" x1="330" y1="403.2" x2="355.9" y2="403.2"/>
<g id="tree2">
	<path data-async class="st0" d="M385.2,341.2c5.2,5.2,5.2,13.6,0,18.8l18.8-18.8C398.9,336,390.4,336,385.2,341.2z"/>
	<path data-async class="st0" d="M385.2,341.2c-5.2-5.2-13.6-5.2-18.8,0l18.8,18.8C380,354.8,380,346.4,385.2,341.2z"/>
	<path data-async class="st0" d="M385.2,341.2c-5.2,5.2-5.2,13.6,0,18.8C390.4,354.8,390.4,346.4,385.2,341.2z"/>
	<line data-async class="st0" x1="385.2" y1="360" x2="385.2" y2="382"/>
</g>
<line class="st0" x1="414" y1="403.2" x2="430" y2="403.2"/>
<polyline class="st0" points="431.6,396.1 438.5,403.8 431.6,411.5 "/>
<line  data-async class="st0" x1="442" y1="403.2" x2="468" y2="403.2"/>
<g id="tree3">
	<g>
		<path data-async class="st0" d="M497,318.7c4.7,4.7,4.7,12.4,0,17.1l17.1-17.1C509.4,314,501.7,314,497,318.7z"/>
		<path data-async class="st0" d="M497,318.7c-4.7-4.7-12.4-4.7-17.1,0l17.1,17.1C492.3,331.1,492.3,323.4,497,318.7z"/>
		<path data-async class="st0" d="M497,318.7c-4.7,4.7-4.7,12.4,0,17.1C501.7,331.1,501.7,323.4,497,318.7z"/>
	</g>
	<line class="st0" x1="497" y1="336.1" x2="497" y2="382"/>
	<g>
		<g>
			<path data-async class="st0" d="M522.4,341c0,5.3-4.3,9.6-9.6,9.6H532C532,345.3,527.7,341,522.4,341z"/>
			<path data-async class="st0" d="M522.4,341c0-5.3-4.3-9.6-9.6-9.6v19.2C512.8,345.3,517.1,341,522.4,341z"/>
			<path data-async class="st0" d="M522.4,341c-5.3,0-9.6,4.3-9.6,9.6C518.1,350.6,522.4,346.3,522.4,341z"/>
		</g>
		<line class="st0" x1="497.4" y1="365.8" x2="513.2" y2="350"/>
		<g>
			<path data-async class="st0" d="M471.6,341c0,5.3,4.3,9.6,9.6,9.6H462C462,345.3,466.3,341,471.6,341z"/>
			<path data-async class="st0" d="M471.6,341c0-5.3,4.3-9.6,9.6-9.6v19.2C481.2,345.3,476.9,341,471.6,341z"/>
			<path data-async class="st0" d="M471.6,341c5.3,0,9.6,4.3,9.6,9.6C475.9,350.6,471.6,346.3,471.6,341z"/>
		</g>
		<line class="st0" x1="496.6" y1="365.8" x2="480.8" y2="350"/>
	</g>
</g>
<path class="st0" d="M525,403.2h19.5c13.8,0,25,11.2,25,25v16.5v7.3v85.6c0,13.8-11.2,25-25,25H509"/>
<g>
	<path id="XMLID_186_" class="st1" d="M543.5,554.8c-1.2,0.2-2.4,0.3-3.6,0.3"/>
	<path  data-async id="XMLID_185_" class="st1" d="M560.1,534.9c0,8.1-4.7,15-11.5,18.3"/>
</g>
<g id="tree4">
	<g>
		<g>
			<g>
				<g>
					<g>
						<path data-async class="st0" d="M490,467.1c0,5-4,9-9,9h18C499,471.1,495,467.1,490,467.1z"/>
					</g>
					<g>
						<path data-async class="st0" d="M490,467.1c0-5-4-9-9-9v18C481,471.1,485.1,467.1,490,467.1z"/>
					</g>
					<g>
						<path data-async class="st0" d="M490,467.1c-5,0-9,4-9,9C486,476.1,490,472.1,490,467.1z"/>
					</g>
				</g>
				<g>
					<g>
						<path data-async class="st0" d="M467.3,467.1c0,5,4,9,9,9h-18C458.3,471.1,462.3,467.1,467.3,467.1z"/>
					</g>
					<g>
						<path data-async class="st0" d="M467.3,467.1c0-5,4-9,9-9v18C476.3,471.1,472.2,467.1,467.3,467.1z"/>
					</g>
					<g>
						<path data-async class="st0" d="M467.3,467.1c5,0,9,4,9,9C471.3,476.1,467.3,472.1,467.3,467.1z"/>
					</g>
				</g>
			</g>
			<g>
				<g>
					<g>
						<path data-async class="st0" d="M490,489.8c0-5-4-9-9-9h18C499,485.8,495,489.8,490,489.8z"/>
					</g>
					<g>
						<path data-async class="st0" d="M490,489.8c0,5-4,9-9,9v-18C481,485.8,485.1,489.8,490,489.8z"/>
					</g>
					<g>
						<path data-async class="st0" d="M490,489.8c-5,0-9-4-9-9C486,480.8,490,484.8,490,489.8z"/>
					</g>
				</g>
				<g>
					<g>
						<path data-async class="st0" d="M467.3,489.8c0-5,4-9,9-9h-18C458.3,485.8,462.3,489.8,467.3,489.8z"/>
					</g>
					<g>
						<path data-async class="st0" d="M467.3,489.8c0,5,4,9,9,9v-18C476.3,485.8,472.2,489.8,467.3,489.8z"/>
					</g>
					<g>
						<path data-async class="st0" d="M467.3,489.8c5,0,9-4,9-9C471.3,480.8,467.3,484.8,467.3,489.8z"/>
					</g>
				</g>
			</g>
		</g>
	</g>
	<line data-async class="st0" x1="479" y1="504.2" x2="479" y2="548.6"/>
	<g>
		<g>
			<path data-async class="st0" d="M507,503.6c0,5.8-4.7,10.6-10.6,10.6h21.1C517.5,508.3,512.8,503.6,507,503.6z"/>
			<path data-async class="st0" d="M507,503.6c0-5.8-4.7-10.6-10.6-10.6v21.1C496.4,508.3,501.1,503.6,507,503.6z"/>
			<path data-async class="st0" d="M507,503.6c-5.8,0-10.6,4.7-10.6,10.6C502.2,514.2,507,509.4,507,503.6z"/>
		</g>
		<line data-async class="st0" x1="479.5" y1="530.9" x2="496.8" y2="513.5"/>
		<g>
			<path data-async class="st0" d="M451.1,503.6c0,5.8,4.7,10.6,10.6,10.6h-21.1C440.6,508.3,445.3,503.6,451.1,503.6z"/>
			<path data-async class="st0" d="M451.1,503.6c0-5.8,4.7-10.6,10.6-10.6v21.1C461.7,508.3,456.9,503.6,451.1,503.6z"/>
			<path data-async class="st0" d="M451.1,503.6c5.8,0,10.6,4.7,10.6,10.6C455.8,514.2,451.1,509.4,451.1,503.6z"/>
		</g>
		<line class="st0" x1="478.6" y1="530.9" x2="461.3" y2="513.5"/>
	</g>
</g>
<line class="st0" x1="449.7" y1="562.5" x2="424.7" y2="562.5"/>
<polyline class="st0" points="420.2,554.8 413.3,562.5 420.2,570.2 "/>
<line  data-async class="st0" x1="405.4" y1="562.5" x2="346.4" y2="562.5"/>
<g id="tree5">
	<g>
		<path data-async class="st0" d="M350.9,492.4c0,6.9-5.6,12.5-12.5,12.5h25C363.4,498,357.8,492.4,350.9,492.4z"/>
		<path data-async class="st0" d="M350.9,492.4c0-6.9-5.6-12.5-12.5-12.5v25C338.4,498,344,492.4,350.9,492.4z"/>
		<path data-async class="st0" d="M350.9,492.4c-6.9,0-12.5,5.6-12.5,12.5C345.3,504.9,350.9,499.3,350.9,492.4z"/>
	</g>
	<g>
		<path data-async class="st0" d="M338.1,516.6c4.1,4.1,4.1,10.7,0,14.7l14.7-14.7C348.7,512.6,342.1,512.6,338.1,516.6z"/>
		<path data-async class="st0" d="M338.1,516.6c-4.1-4.1-10.7-4.1-14.7,0l14.7,14.7C334,527.3,334,520.7,338.1,516.6z"/>
		<path data-async class="st0" d="M338.1,516.6c-4.1,4.1-4.1,10.7,0,14.7C342.1,527.3,342.1,520.7,338.1,516.6z"/>
	</g>
	<g>
		<g>
			<g>
				<g>
					<g>
						<path data-async class="st0" d="M324.2,458.4c0,5.3-4.3,9.6-9.6,9.6h19.3C333.9,462.7,329.6,458.4,324.2,458.4z"/>
					</g>
					<g>
						<path data-async class="st0" d="M324.2,458.4c0-5.3-4.3-9.6-9.6-9.6V468C314.6,462.7,318.9,458.4,324.2,458.4z"/>
					</g>
					<g>
						<path data-async class="st0" d="M324.2,458.4c-5.3,0-9.6,4.3-9.6,9.6C319.9,468,324.2,463.7,324.2,458.4z"/>
					</g>
				</g>
				<g>
					<g>
						<path data-async class="st0" d="M299.9,458.4c0,5.3,4.3,9.6,9.6,9.6h-19.3C290.3,462.7,294.6,458.4,299.9,458.4z"/>
					</g>
					<g>
						<path class="st0" d="M299.9,458.4c0-5.3,4.3-9.6,9.6-9.6V468C309.5,462.7,305.2,458.4,299.9,458.4z"/>
					</g>
					<g>
						<path data-async class="st0" d="M299.9,458.4c5.3,0,9.6,4.3,9.6,9.6C304.2,468,299.9,463.7,299.9,458.4z"/>
					</g>
				</g>
			</g>
			<g>
				<g>
					<g>
						<path data-async class="st0" d="M324.2,482.7c0-5.3-4.3-9.6-9.6-9.6h19.3C333.9,478.4,329.6,482.7,324.2,482.7z"/>
					</g>
					<g>
						<path data-async class="st0" d="M324.2,482.7c0,5.3-4.3,9.6-9.6,9.6v-19.3C314.6,478.4,318.9,482.7,324.2,482.7z"/>
					</g>
					<g>
						<path data-async class="st0" d="M324.2,482.7c-5.3,0-9.6-4.3-9.6-9.6C319.9,473.1,324.2,477.4,324.2,482.7z"/>
					</g>
				</g>
				<g>
					<g>
						<path data-async class="st0" d="M299.9,482.7c0-5.3,4.3-9.6,9.6-9.6h-19.3C290.3,478.4,294.6,482.7,299.9,482.7z"/>
					</g>
					<g>
						<path data-async class="st0" d="M299.9,482.7c0,5.3,4.3,9.6,9.6,9.6v-19.3C309.5,478.4,305.2,482.7,299.9,482.7z"/>
					</g>
					<g>
						<path data-async class="st0" d="M299.9,482.7c5.3,0,9.6-4.3,9.6-9.6C304.2,473.1,299.9,477.4,299.9,482.7z"/>
					</g>
				</g>
			</g>
		</g>
	</g>
	<line data-async class="st0" x1="312" y1="495.1" x2="312" y2="548.6"/>
	<path data-async class="st0" d="M311.6,539.3c0,0,15.6,1.2,26.5-7.9"/>
	<path data-async class="st0" d="M338.4,504.9c0,0-15.5-0.8-25.6,13.7"/>
	<g>
		<path data-async class="st0" d="M273,492.4c0,6.9,5.6,12.5,12.5,12.5h-25C260.5,498,266.1,492.4,273,492.4z"/>
		<path data-async class="st0" d="M273,492.4c0-6.9,5.6-12.5,12.5-12.5v25C285.5,498,279.9,492.4,273,492.4z"/>
		<path data-async class="st0" d="M273,492.4c6.9,0,12.5,5.6,12.5,12.5C278.6,504.9,273,499.3,273,492.4z"/>
	</g>
	<g>
		<path data-async class="st0" d="M285.8,516.6c-4.1,4.1-4.1,10.7,0,14.7L271,516.6C275.1,512.6,281.7,512.6,285.8,516.6z"/>
		<path data-async class="st0" d="M285.8,516.6c4.1-4.1,10.7-4.1,14.7,0l-14.7,14.7C289.9,527.3,289.9,520.7,285.8,516.6z"/>
		<path data-async class="st0" d="M285.8,516.6c4.1,4.1,4.1,10.7,0,14.7C281.7,527.3,281.7,520.7,285.8,516.6z"/>
	</g>
	<path data-async class="st0" d="M312.3,539.3c0,0-15.6,1.2-26.5-7.9"/>
	<path class="st0" d="M285.5,504.9c0,0,15.5-0.8,25.6,13.7"/>
</g>
<line class="st0" x1="275" y1="562.5" x2="225" y2="562.5"/>
<polyline class="st0" points="223.4,554.8 216.6,562.5 223.4,570.2 "/>
<line class="st0" x1="210" y1="562.5" x2="184" y2="562.5"/>
<g id="tree6">
	<g>
		<g>
			<g>
				<g>
					<g>
						<path data-async class="st0" d="M158.1,435.8c0,5.7-4.6,10.3-10.3,10.3h20.6C168.4,440.4,163.8,435.8,158.1,435.8z"/>
					</g>
					<g>
						<path data-async class="st0" d="M158.1,435.8c0-5.7-4.6-10.3-10.3-10.3v20.6C147.8,440.4,152.4,435.8,158.1,435.8z"/>
					</g>
					<g>
						<path data-async class="st0" d="M158.1,435.8c-5.7,0-10.3,4.6-10.3,10.3C153.5,446.1,158.1,441.4,158.1,435.8z"/>
					</g>
				</g>
				<g>
					<g>
						<path data-async class="st0" d="M132,435.8c0,5.7,4.6,10.3,10.3,10.3h-20.6C121.7,440.4,126.3,435.8,132,435.8z"/>
					</g>
					<g>
						<path data-async class="st0" d="M132,435.8c0-5.7,4.6-10.3,10.3-10.3v20.6C142.3,440.4,137.7,435.8,132,435.8z"/>
					</g>
					<g>
						<path data-async class="st0" d="M132,435.8c5.7,0,10.3,4.6,10.3,10.3C136.6,446.1,132,441.4,132,435.8z"/>
					</g>
				</g>
			</g>
			<g>
				<g>
					<g>
						<path data-async class="st0" d="M158.1,461.8c0-5.7-4.6-10.3-10.3-10.3h20.6C168.4,457.1,163.8,461.8,158.1,461.8z"/>
					</g>
					<g>
						<path data-async class="st0" d="M158.1,461.8c0,5.7-4.6,10.3-10.3,10.3v-20.6C147.8,457.1,152.4,461.8,158.1,461.8z"/>
					</g>
					<g>
						<path data-async class="st0" d="M158.1,461.8c-5.7,0-10.3-4.6-10.3-10.3C153.5,451.5,158.1,456.1,158.1,461.8z"/>
					</g>
				</g>
				<g>
					<g>
						<path data-async class="st0" d="M132,461.8c0-5.7,4.6-10.3,10.3-10.3h-20.6C121.7,457.1,126.3,461.8,132,461.8z"/>
					</g>
					<g>
						<path data-async class="st0" d="M132,461.8c0,5.7,4.6,10.3,10.3,10.3v-20.6C142.3,457.1,137.7,461.8,132,461.8z"/>
					</g>
					<g>
						<path data-async class="st0" d="M132,461.8c5.7,0,10.3-4.6,10.3-10.3C136.6,451.5,132,456.1,132,461.8z"/>
					</g>
				</g>
			</g>
		</g>
	</g>
	<line data-async class="st0" x1="145" y1="475.2" x2="145" y2="548.6"/>
	<g>
		<path data-async class="st0" d="M179.4,469.3c-3.9-3.9-10.3-3.9-14.2,0s-3.9,10.3,0,14.2L179.4,469.3z"/>
		<g>
			<path data-async class="st0" d="M190.7,495.4c-4.1,4.1-10.7,4.1-14.7,0l14.7,14.7C194.8,506.1,194.8,499.5,190.7,495.4z"/>
			<path data-async class="st0" d="M190.7,495.4c4.1-4.1,4.1-10.7,0-14.7L176,495.4C180.1,491.4,186.7,491.4,190.7,495.4z"/>
			<path data-async class="st0" d="M190.7,495.4c-4.1-4.1-10.7-4.1-14.7,0C180.1,499.5,186.7,499.5,190.7,495.4z"/>
		</g>
		<g>
			<path data-async class="st0" d="M171.1,514.4c0,5.5-4.4,9.9-9.9,9.9H181C181,518.8,176.5,514.4,171.1,514.4z"/>
			<path data-async class="st0" d="M171.1,514.4c0-5.5-4.4-9.9-9.9-9.9v19.8C161.2,518.8,165.6,514.4,171.1,514.4z"/>
			<path data-async class="st0" d="M171.1,514.4c-5.5,0-9.9,4.4-9.9,9.9C166.6,524.3,171.1,519.9,171.1,514.4z"/>
		</g>
		<path data-async class="st0" d="M161.2,524.3c0,0-8.2,8.6-17.1,10.9"/>
		<path data-async class="st0" d="M144.1,510.9c0,0,10.3-15.4,31.9-15.4"/>
		<path data-async class="st0" d="M165.2,483.5c0,0-9.2,8.9-20.5,11.3"/>
	</g>
	<g>
		<path data-async class="st0" d="M109.8,469.3c3.9-3.9,10.3-3.9,14.2,0c3.9,3.9,3.9,10.3,0,14.2L109.8,469.3z"/>
		<g>
			<path data-async data-async class="st0" d="M98.4,495.4c4.1,4.1,10.7,4.1,14.7,0l-14.7,14.7C94.4,506.1,94.4,499.5,98.4,495.4z"/>
			<path data-async data-async class="st0" d="M98.4,495.4c-4.1-4.1-4.1-10.7,0-14.7l14.7,14.7C109.1,491.4,102.5,491.4,98.4,495.4z"/>
			<path data-async data-async class="st0" d="M98.4,495.4c4.1-4.1,10.7-4.1,14.7,0C109.1,499.5,102.5,499.5,98.4,495.4z"/>
		</g>
		<g>
			<path data-async class="st0" d="M118.1,514.4c0,5.5,4.4,9.9,9.9,9.9h-19.8C108.2,518.8,112.6,514.4,118.1,514.4z"/>
			<path data-async class="st0" d="M118.1,514.4c0-5.5,4.4-9.9,9.9-9.9v19.8C128,518.8,123.6,514.4,118.1,514.4z"/>
			<path data-async class="st0" d="M118.1,514.4c5.5,0,9.9,4.4,9.9,9.9C122.5,524.3,118.1,519.9,118.1,514.4z"/>
		</g>
		<path data-async class="st0" d="M128,524.3c0,0,8.2,8.6,17.1,10.9"/>
		<path data-async class="st0" d="M145.1,510.9c0,0-10.3-15.4-31.9-15.4"/>
		<path data-async class="st0" d="M124,483.5c0,0,9.2,8.9,20.5,11.3"/>
	</g>
</g>
<path class="st0" d="M111,562.2H72.5c-13.8,0-25,11.2-25,25l0,159.8v20v34.1c0,13.8,11.2,25,25,25H114"/>
<g id="tree7">
	<g>
		<g>
			<g>
				<g>
					<g>
						<path data-async class="st0" d="M157,652.8c0,4.6-3.7,8.3-8.3,8.3h16.6C165.3,656.5,161.6,652.8,157,652.8z"/>
					</g>
					<g>
						<path data-async class="st0" d="M157,652.8c0-4.6-3.7-8.3-8.3-8.3v16.6C148.7,656.5,152.4,652.8,157,652.8z"/>
					</g>
					<g>
						<path data-async class="st0" d="M157,652.8c-4.6,0-8.3,3.7-8.3,8.3C153.3,661.1,157,657.3,157,652.8z"/>
					</g>
				</g>
				<g>
					<g>
						<path data-async class="st0" d="M136,652.8c0,4.6,3.7,8.3,8.3,8.3h-16.6C127.8,656.5,131.5,652.8,136,652.8z"/>
					</g>
					<g>
						<path data-async class="st0" d="M136,652.8c0-4.6,3.7-8.3,8.3-8.3v16.6C144.3,656.5,140.6,652.8,136,652.8z"/>
					</g>
					<g>
						<path data-async class="st0" d="M136,652.8c4.6,0,8.3,3.7,8.3,8.3C139.7,661.1,136,657.3,136,652.8z"/>
					</g>
				</g>
			</g>
			<g>
				<g>
					<g>
						<path data-async class="st0" d="M157,673.7c0-4.6-3.7-8.3-8.3-8.3h16.6C165.3,670,161.6,673.7,157,673.7z"/>
					</g>
					<g>
						<path data-async class="st0" d="M157,673.7c0,4.6-3.7,8.3-8.3,8.3v-16.6C148.7,670,152.4,673.7,157,673.7z"/>
					</g>
					<g>
						<path data-async class="st0" d="M157,673.7c-4.6,0-8.3-3.7-8.3-8.3C153.3,665.4,157,669.1,157,673.7z"/>
					</g>
				</g>
				<g>
					<g>
						<path data-async class="st0" d="M136,673.7c0-4.6,3.7-8.3,8.3-8.3h-16.6C127.8,670,131.5,673.7,136,673.7z"/>
					</g>
					<g>
						<path data-async class="st0" d="M136,673.7c0,4.6,3.7,8.3,8.3,8.3v-16.6C144.3,670,140.6,673.7,136,673.7z"/>
					</g>
					<g>
						<path data-async class="st0" d="M136,673.7c4.6,0,8.3-3.7,8.3-8.3C139.7,665.4,136,669.1,136,673.7z"/>
					</g>
				</g>
			</g>
		</g>
	</g>
	<path data-async class="st0" d="M137.3,803.3l2.9-38.7c0,0-33-41.6-35.5-44.8c-2.5-3.2-0.7-3.2-0.7-3.2l36.7,30.2l5.3-80.7"/>
	<path data-async class="st0" d="M146.7,666.2l5.3,80.7l36.7-30.2c0,0,1.8,0-0.7,3.2s-35.5,44.8-35.5,44.8l2.9,38.7"/>
	<g>
		<path data-async class="st0" d="M99.3,688.7c2.8,2.8,2.8,7.5,0,10.3l10.3-10.3C106.8,685.9,102.2,685.9,99.3,688.7z"/>
		<path data-async class="st0" d="M99.3,688.7c-2.8-2.8-7.5-2.8-10.3,0L99.3,699C96.5,696.2,96.5,691.6,99.3,688.7z"/>
		<path data-async class="st0" d="M99.3,688.7c-2.8,2.8-2.8,7.5,0,10.3C102.2,696.2,102.2,691.6,99.3,688.7z"/>
	</g>
	<g>
		<path data-async class="st0" d="M123.3,702.9c3.2,3.2,3.2,8.4,0,11.6l11.6-11.6C131.7,699.7,126.5,699.7,123.3,702.9z"/>
		<path data-async class="st0" d="M123.3,702.9c-3.2-3.2-8.4-3.2-11.6,0l11.6,11.6C120.1,711.2,120.1,706.1,123.3,702.9z"/>
		<path data-async class="st0" d="M123.3,702.9c-3.2,3.2-3.2,8.4,0,11.6C126.5,711.2,126.5,706.1,123.3,702.9z"/>
	</g>
	<g>
		<path data-async class="st0" d="M111.5,670.8c4.6,0,8.4,3.7,8.4,8.4v-16.7C115.2,662.5,111.5,666.2,111.5,670.8z"/>
		<path data-async class="st0" d="M111.5,670.8c-4.6,0-8.4,3.7-8.4,8.4h16.7C115.2,679.2,111.5,675.4,111.5,670.8z"/>
		<path data-async class="st0" d="M111.5,670.8c0,4.6,3.7,8.4,8.4,8.4C119.8,674.5,116.1,670.8,111.5,670.8z"/>
	</g>
	<g>
		<path data-async class="st0" d="M115.4,764.6c4.2,0,7.6,3.4,7.6,7.6V757C118.8,757,115.4,760.4,115.4,764.6z"/>
		<path data-async class="st0" d="M115.4,764.6c-4.2,0-7.6,3.4-7.6,7.6H123C118.8,772.2,115.4,768.8,115.4,764.6z"/>
		<path data-async class="st0" d="M115.4,764.6c0,4.2,3.4,7.6,7.6,7.6C123,768,119.6,764.6,115.4,764.6z"/>
	</g>
	<g>
		<path data-async class="st0" d="M92.8,752.5c0-4.5,3.6-8.1,8.1-8.1H84.7C84.7,748.9,88.3,752.5,92.8,752.5z"/>
		<path data-async class="st0" d="M92.8,752.5c0,4.5,3.6,8.1,8.1,8.1v-16.2C100.9,748.9,97.3,752.5,92.8,752.5z"/>
		<path data-async class="st0" d="M92.8,752.5c4.5,0,8.1-3.6,8.1-8.1C96.4,744.4,92.8,748.1,92.8,752.5z"/>
	</g>
	<g>
		<path data-async class="st0" d="M82.4,718.3c3.6-3.6,9.5-3.6,13.1,0l-13.1-13.1C78.8,708.9,78.8,714.7,82.4,718.3z"/>
		<path data-async class="st0" d="M82.4,718.3c-3.6,3.6-3.6,9.5,0,13.1l13.1-13.1C91.9,721.9,86,721.9,82.4,718.3z"/>
		<path data-async class="st0" d="M82.4,718.3c3.6,3.6,9.5,3.6,13.1,0C91.9,714.7,86,714.7,82.4,718.3z"/>
	</g>
	<path data-async class="st0" d="M123,772.2c0,0,3.9,4.3,15.8,3.6"/>
	<path data-async class="st0" d="M100.9,744.4c0,0,9.1-3.8,17.7-5.9"/>
	<path data-async class="st0" d="M95.5,718.3l7.4-0.2l1.1-1.4c0,0-5.7-9.5-4.7-17.6"/>
	<path data-async class="st0" d="M123.3,714.4c0,0,9.1,12.2,18.6,12.7"/>
	<g>
		<path data-async class="st0" d="M167.8,702.9c-3.2,3.2-3.2,8.4,0,11.6l-11.6-11.6C159.4,699.7,164.6,699.7,167.8,702.9z"/>
		<path data-async class="st0" d="M167.8,702.9c3.2-3.2,8.4-3.2,11.6,0l-11.6,11.6C171,711.2,171,706.1,167.8,702.9z"/>
		<path data-async class="st0" d="M167.8,702.9c3.2,3.2,3.2,8.4,0,11.6C164.6,711.2,164.6,706.1,167.8,702.9z"/>
	</g>
	<path class="st0" d="M167.8,714.4c0,0-9.1,12.2-18.6,12.7"/>
	<g>
		<path data-async class="st0" d="M193.1,688.7c-2.8,2.8-2.8,7.5,0,10.3l-10.3-10.3C185.7,685.9,190.3,685.9,193.1,688.7z"/>
		<path data-async class="st0" d="M193.1,688.7c2.8-2.8,7.5-2.8,10.3,0L193.1,699C196,696.2,196,691.6,193.1,688.7z"/>
		<path data-async class="st0" d="M193.1,688.7c2.8,2.8,2.8,7.5,0,10.3C190.3,696.2,190.3,691.6,193.1,688.7z"/>
	</g>
	<g>
		<path data-async class="st0" d="M181,670.8c-4.6,0-8.4,3.7-8.4,8.4v-16.7C177.2,662.5,181,666.2,181,670.8z"/>
		<path data-async class="st0" d="M181,670.8c4.6,0,8.4,3.7,8.4,8.4h-16.7C177.2,679.2,181,675.4,181,670.8z"/>
		<path data-async class="st0" d="M181,670.8c0,4.6-3.7,8.4-8.4,8.4C172.6,674.5,176.4,670.8,181,670.8z"/>
	</g>
	<g>
		<path data-async class="st0" d="M177.1,764.6c-4.2,0-7.6,3.4-7.6,7.6V757C173.7,757,177.1,760.4,177.1,764.6z"/>
		<path data-async class="st0" d="M177.1,764.6c4.2,0,7.6,3.4,7.6,7.6h-15.2C173.7,772.2,177.1,768.8,177.1,764.6z"/>
		<path data-async class="st0" d="M177.1,764.6c0,4.2-3.4,7.6-7.6,7.6C169.5,768,172.9,764.6,177.1,764.6z"/>
	</g>
	<g>
		<path data-async class="st0" d="M199.6,752.5c0-4.5-3.6-8.1-8.1-8.1h16.2C207.7,748.9,204.1,752.5,199.6,752.5z"/>
		<path data-async class="st0" d="M199.6,752.5c0,4.5-3.6,8.1-8.1,8.1v-16.2C191.5,748.9,195.2,752.5,199.6,752.5z"/>
		<path data-async class="st0" d="M199.6,752.5c-4.5,0-8.1-3.6-8.1-8.1C196,744.4,199.6,748.1,199.6,752.5z"/>
	</g>
	<g>
		<path data-async class="st0" d="M210,718.3c-3.6-3.6-9.5-3.6-13.1,0l13.1-13.1C213.6,708.9,213.6,714.7,210,718.3z"/>
		<path data-async class="st0" d="M210,718.3c3.6,3.6,3.6,9.5,0,13.1L197,718.3C200.6,721.9,206.4,721.9,210,718.3z"/>
		<path data-async class="st0" d="M210,718.3c-3.6,3.6-9.5,3.6-13.1,0C200.6,714.7,206.4,714.7,210,718.3z"/>
	</g>
	<path data-async class="st0" d="M169.5,772.2c0,0-3.9,4.3-15.8,3.6"/>
	<path data-async class="st0" d="M191.5,744.4c0,0-9.1-3.8-17.7-5.9"/>
	<path class="st0" d="M197,718.3l-7.4-0.2l-1.1-1.4c0,0,5.7-9.5,4.7-17.6"/>
</g>
<line class="st0" x1="180.2" y1="826.2" x2="227" y2="826.2"/>
<polyline class="st0" points="231.1,818.5 238,826.2 231.1,833.8 "/>
<line class="st0" x1="246.2" y1="826.2" x2="305" y2="826.2"/>
<g id="tree8">
	<g>
		<g>
			<g>
				<g>
					<g>
						<path data-async class="st0" d="M352,606.6c0,6-4.8,10.8-10.8,10.8h21.6C362.8,611.4,358,606.6,352,606.6z"/>
					</g>
					<g>
						<path data-async class="st0" d="M352,606.6c0-6-4.8-10.8-10.8-10.8v21.6C341.2,611.4,346,606.6,352,606.6z"/>
					</g>
					<g>
						<path data-async class="st0" d="M352,606.6c-6,0-10.8,4.8-10.8,10.8C347.2,617.4,352,612.5,352,606.6z"/>
					</g>
				</g>
				<g>
					<g>
						<path data-async class="st0" d="M324.6,606.6c0,6,4.8,10.8,10.8,10.8h-21.6C313.8,611.4,318.7,606.6,324.6,606.6z"/>
					</g>
					<g>
						<path data-async class="st0" d="M324.6,606.6c0-6,4.8-10.8,10.8-10.8v21.6C335.5,611.4,330.6,606.6,324.6,606.6z"/>
					</g>
					<g>
						<path data-async class="st0" d="M324.6,606.6c6,0,10.8,4.8,10.8,10.8C329.5,617.4,324.6,612.5,324.6,606.6z"/>
					</g>
				</g>
			</g>
			<g>
				<g>
					<g>
						<path data-async class="st0" d="M352,633.9c0-6-4.8-10.8-10.8-10.8h21.6C362.8,629,358,633.9,352,633.9z"/>
					</g>
					<g>
						<path data-async class="st0" d="M352,633.9c0,6-4.8,10.8-10.8,10.8V623C341.2,629,346,633.9,352,633.9z"/>
					</g>
					<g>
						<path data-async class="st0" d="M352,633.9c-6,0-10.8-4.8-10.8-10.8C347.2,623,352,627.9,352,633.9z"/>
					</g>
				</g>
				<g>
					<g>
						<path data-async class="st0" d="M324.6,633.9c0-6,4.8-10.8,10.8-10.8h-21.6C313.8,629,318.7,633.9,324.6,633.9z"/>
					</g>
					<g>
						<path data-async class="st0" d="M324.6,633.9c0,6,4.8,10.8,10.8,10.8V623C335.5,629,330.6,633.9,324.6,633.9z"/>
					</g>
					<g>
						<path data-async class="st0" d="M324.6,633.9c6,0,10.8-4.8,10.8-10.8C329.5,623,324.6,627.9,324.6,633.9z"/>
					</g>
				</g>
			</g>
		</g>
	</g>
	<path data-async class="st0" d="M326.3,803.3l3.7-50.6c0,0-43.1-54.3-46.3-58.5c-3.3-4.2-0.9-4.2-0.9-4.2l47.9,39.5l6.9-105.5"/>
	<path data-async class="st0" d="M338.6,624l6.9,105.5l47.9-39.5c0,0,2.3,0-0.9,4.2c-3.3,4.2-46.3,58.5-46.3,58.5l3.7,50.6"/>
	<line data-async class="st0" x1="319.8" y1="667.3" x2="333.8" y2="682.4"/>
	<line data-async class="st0" x1="355.6" y1="667.3" x2="341.7" y2="682.4"/>
	<g>
		<path data-async class="st0" d="M319.8,667.3c4.1-4.1,4.1-10.8,0-14.9c-4.1-4.1-10.8-4.1-14.9,0L319.8,667.3z"/>
		<g>
			<path data-async class="st0" d="M276.6,653.5c3.7,3.7,3.7,9.7,0,13.5l13.5-13.5C286.4,649.8,280.4,649.8,276.6,653.5z"/>
			<path data-async class="st0" d="M276.6,653.5c-3.7-3.7-9.7-3.7-13.5,0l13.5,13.5C272.9,663.3,272.9,657.2,276.6,653.5z"/>
			<path data-async class="st0" d="M276.6,653.5c-3.7,3.7-3.7,9.7,0,13.5C280.4,663.3,280.4,657.2,276.6,653.5z"/>
		</g>
		<g>
			<path data-async class="st0" d="M301.5,677.2c4.2,4.2,4.2,11,0,15.2l15.2-15.2C312.4,673,305.6,673,301.5,677.2z"/>
			<path data-async class="st0" d="M301.5,677.2c-4.2-4.2-11-4.2-15.2,0l15.2,15.2C297.3,688.2,297.3,681.4,301.5,677.2z"/>
			<path data-async class="st0" d="M301.5,677.2c-4.2,4.2-4.2,11,0,15.2C305.6,688.2,305.6,681.4,301.5,677.2z"/>
		</g>
		<g>
			<path data-async class="st0" d="M292.5,630.1c6,0,10.9,4.9,10.9,10.9v-21.8C297.4,619.2,292.5,624.1,292.5,630.1z"/>
			<path data-async class="st0" d="M292.5,630.1c-6,0-10.9,4.9-10.9,10.9h21.8C297.4,641,292.5,636.1,292.5,630.1z"/>
			<path data-async class="st0" d="M292.5,630.1c0,6,4.9,10.9,10.9,10.9C303.5,635,298.6,630.1,292.5,630.1z"/>
		</g>
		<g>
			<path data-async class="st0" d="M297.6,752.7c5.5,0,9.9,4.4,9.9,9.9v-19.8C302.1,742.8,297.6,747.2,297.6,752.7z"/>
			<path data-async class="st0" d="M297.6,752.7c-5.5,0-9.9,4.4-9.9,9.9h19.8C302.1,762.6,297.6,758.2,297.6,752.7z"/>
			<path data-async class="st0" d="M297.6,752.7c0,5.5,4.4,9.9,9.9,9.9C307.5,757.2,303.1,752.7,297.6,752.7z"/>
		</g>
		<g>
			<path data-async class="st0" d="M268.2,736.9c0-5.9,4.7-10.6,10.6-10.6h-21.2C257.6,732.2,262.3,736.9,268.2,736.9z"/>
			<path data-async class="st0" d="M268.2,736.9c0,5.9,4.7,10.6,10.6,10.6v-21.2C278.7,732.2,274,736.9,268.2,736.9z"/>
			<path data-async class="st0" d="M268.2,736.9c5.9,0,10.6-4.7,10.6-10.6C272.9,726.3,268.2,731.1,268.2,736.9z"/>
		</g>
		<g>
			<path data-async class="st0" d="M254.6,692.2c4.7-4.7,12.4-4.7,17.1,0l-17.1-17.1C249.8,679.9,249.8,687.5,254.6,692.2z"/>
			<path data-async class="st0" d="M254.6,692.2c-4.7,4.7-4.7,12.4,0,17.1l17.1-17.1C266.9,697,259.3,697,254.6,692.2z"/>
			<path data-async class="st0" d="M254.6,692.2c4.7,4.7,12.4,4.7,17.1,0C266.9,687.5,259.3,687.5,254.6,692.2z"/>
		</g>
		<path data-async class="st0" d="M307.5,762.6c0,0,5.1,5.6,20.6,4.7"/>
		<path data-async class="st0" d="M278.7,726.3c0,0,11.9-4.9,23.2-7.7"/>
		<path data-async class="st0" d="M271.6,692.2l9.7-0.3l1.4-1.9c0,0-7.5-12.4-6.1-23.1"/>
		<path data-async class="st0" d="M303.5,641c0,0,23.3,1.7,31.2,15.8"/>
		<path data-async class="st0" d="M301.5,692.4c0,0,11.7,16.4,29.5,18.3"/>
	</g>
	<g>
		<path data-async class="st0" d="M356.1,667.3c-4.1-4.1-4.1-10.8,0-14.9c4.1-4.1,10.8-4.1,14.9,0L356.1,667.3z"/>
		<g>
			<path data-async class="st0" d="M399.3,653.5c-3.7,3.7-3.7,9.7,0,13.5l-13.5-13.5C389.5,649.8,395.6,649.8,399.3,653.5z"/>
			<path data-async class="st0" d="M399.3,653.5c3.7-3.7,9.7-3.7,13.5,0L399.3,667C403,663.3,403,657.2,399.3,653.5z"/>
			<path data-async class="st0" d="M399.3,653.5c3.7,3.7,3.7,9.7,0,13.5C395.6,663.3,395.6,657.2,399.3,653.5z"/>
		</g>
		<g>
			<path data-async class="st0" d="M374.5,677.2c-4.2,4.2-4.2,11,0,15.2l-15.2-15.2C363.5,673,370.3,673,374.5,677.2z"/>
			<path data-async class="st0" d="M374.5,677.2c4.2-4.2,11-4.2,15.2,0l-15.2,15.2C378.6,688.2,378.6,681.4,374.5,677.2z"/>
			<path data-async class="st0" d="M374.5,677.2c4.2,4.2,4.2,11,0,15.2C370.3,688.2,370.3,681.4,374.5,677.2z"/>
		</g>
		<g>
			<path data-async class="st0" d="M383.4,630.1c-6,0-10.9,4.9-10.9,10.9v-21.8C378.5,619.2,383.4,624.1,383.4,630.1z"/>
			<path data-async class="st0" d="M383.4,630.1c6,0,10.9,4.9,10.9,10.9h-21.8C378.5,641,383.4,636.1,383.4,630.1z"/>
			<path data-async class="st0" d="M383.4,630.1c0,6-4.9,10.9-10.9,10.9C372.5,635,377.3,630.1,383.4,630.1z"/>
		</g>
		<g>
			<path data-async class="st0" d="M378.3,752.7c-5.5,0-9.9,4.4-9.9,9.9v-19.8C373.8,742.8,378.3,747.2,378.3,752.7z"/>
			<path data-async class="st0" d="M378.3,752.7c5.5,0,9.9,4.4,9.9,9.9h-19.8C373.8,762.6,378.3,758.2,378.3,752.7z"/>
			<path data-async class="st0" d="M378.3,752.7c0,5.5-4.4,9.9-9.9,9.9C368.4,757.2,372.8,752.7,378.3,752.7z"/>
		</g>
		<g>
			<path data-async class="st0" d="M407.8,736.9c0-5.9-4.7-10.6-10.6-10.6h21.2C418.4,732.2,413.6,736.9,407.8,736.9z"/>
			<path data-async class="st0" d="M407.8,736.9c0,5.9-4.7,10.6-10.6,10.6v-21.2C397.2,732.2,401.9,736.9,407.8,736.9z"/>
			<path data-async class="st0" d="M407.8,736.9c-5.9,0-10.6-4.7-10.6-10.6C403,726.3,407.8,731.1,407.8,736.9z"/>
		</g>
		<g>
			<path data-async class="st0" d="M421.4,692.2c-4.7-4.7-12.4-4.7-17.1,0l17.1-17.1C426.1,679.9,426.1,687.5,421.4,692.2z"/>
			<path data-async class="st0" d="M421.4,692.2c4.7,4.7,4.7,12.4,0,17.1l-17.1-17.1C409,697,416.6,697,421.4,692.2z"/>
			<path data-async class="st0" d="M421.4,692.2c-4.7,4.7-12.4,4.7-17.1,0C409,687.5,416.6,687.5,421.4,692.2z"/>
		</g>
		<path data-async class="st0" d="M368.4,762.6c0,0-5.1,5.6-20.6,4.7"/>
		<path data-async class="st0" d="M397.2,726.3c0,0-11.9-4.9-23.2-7.7"/>
		<path data-async class="st0" d="M404.3,692.2l-9.7-0.3l-1.4-1.9c0,0,7.5-12.4,6.1-23.1"/>
		<path data-async class="st0" d="M372.5,641c0,0-23.3,1.7-31.2,15.8"/>
		<path class="st0" d="M374.5,692.4c0,0-11.7,16.4-29.5,18.3"/>
	</g>
</g>
<line class="st0" x1="371" y1="826.2" x2="405" y2="826.2"/>
<polyline class="st0" points="408.9,818.5 415.8,826.2 408.9,833.8 "/>
<line class="st0" x1="423.4" y1="826.2" x2="449" y2="826.2"/>
<g id="tree9">
	<g>
		<path data-async class="st3" d="M556.8,772.4l-18.3-7.6c0,0-6.4-2.4-11.6-2.4s-14.1,0.9-16.5,0.6c-2.4-0.3-10.4-3.1-13.4-4.3
			c-3.1-1.2-7.6-0.6-8.2,1.2c-0.6,1.8-0.6,5.5,2.1,7.3"/>
		<path data-async class="st3" d="M532.7,779.8c0,0-6.1-0.3-11.9-1.8c-5.8-1.5-38.5-13.7-42.8-15.6c-4.3-1.8-8.6-4.9-12.5-2.4
			c-4,2.4-3.1,4.9-3.1,4.9s29.2,15.7,37.9,20.3"/>
		<path data-async class="st0" d="M556.8,794.1c0,0-13.7-3.7-18-3.7s-32.2,2.4-36.2,2.4s-10.7-4.6-18.3-8.2c-7.6-3.7-23.7-12.8-25.2-14.1
			c-1.5-1.2-2.1-4.9,3.4-5.8"/>
		<g>
			<g>
				<g>
					<path data-async class="st0" d="M514.7,722.2c0,6.5-5.2,11.7-11.7,11.7h23.4C526.4,727.4,521.2,722.2,514.7,722.2z"/>
				</g>
				<g>
					<path data-async class="st0" d="M514.7,722.2c0-6.5-5.2-11.7-11.7-11.7v23.4C503,727.4,508.3,722.2,514.7,722.2z"/>
				</g>
				<g>
					<path data-async class="st0" d="M514.7,722.2c-6.5,0-11.7,5.2-11.7,11.7C509.5,733.9,514.7,728.7,514.7,722.2z"/>
				</g>
			</g>
			<g>
				<g>
					<path data-async class="st0" d="M531.2,705.7c0,3.9-3.1,7-7,7h14.1C538.3,708.8,535.1,705.7,531.2,705.7z"/>
				</g>
				<g>
					<path data-async class="st0" d="M531.2,705.7c0-3.9-3.1-7-7-7v14.1C524.2,708.8,527.4,705.7,531.2,705.7z"/>
				</g>
				<g>
					<path data-async class="st0" d="M531.2,705.7c-3.9,0-7,3.1-7,7C528.1,712.7,531.2,709.6,531.2,705.7z"/>
				</g>
			</g>
			<g>
				<g>
					<path data-async class="st0" d="M485.1,722.2c0,6.5,5.2,11.7,11.7,11.7h-23.4C473.4,727.4,478.7,722.2,485.1,722.2z"/>
				</g>
				<g>
					<path data-async class="st0" d="M485.1,722.2c0-6.5,5.2-11.7,11.7-11.7v23.4C496.8,727.4,491.6,722.2,485.1,722.2z"/>
				</g>
				<g>
					<path data-async class="st0" d="M485.1,722.2c6.5,0,11.7,5.2,11.7,11.7C490.4,733.9,485.1,728.7,485.1,722.2z"/>
				</g>
			</g>
		</g>
		<g>
			<g>
				<g>
					<path data-async class="st0" d="M514.7,751.7c0-6.5-5.2-11.7-11.7-11.7h23.4C526.4,746.5,521.2,751.7,514.7,751.7z"/>
				</g>
				<g>
					<path data-async class="st0" d="M514.7,751.7c0,6.5-5.2,11.7-11.7,11.7V740C503,746.5,508.3,751.7,514.7,751.7z"/>
				</g>
				<g>
					<path data-async class="st0" d="M514.7,751.7c-6.5,0-11.7-5.2-11.7-11.7C509.5,740,514.7,745.3,514.7,751.7z"/>
				</g>
			</g>
			<g>
				<g>
					<path data-async class="st0" d="M485.1,751.7c0-6.5,5.2-11.7,11.7-11.7h-23.4C473.4,746.5,478.7,751.7,485.1,751.7z"/>
				</g>
				<g>
					<path data-async class="st0" d="M485.1,751.7c0,6.5,5.2,11.7,11.7,11.7V740C496.8,746.5,491.6,751.7,485.1,751.7z"/>
				</g>
				<g>
					<path class="st0" d="M485.1,751.7c6.5,0,11.7-5.2,11.7-11.7C490.4,740,485.1,745.3,485.1,751.7z"/>
				</g>
			</g>
		</g>
	</g>
</g>
<line class="st0" x1="508" y1="826.2" x2="542" y2="826.2"/>
<path class="st0" d="M542.5,826c10.2,0,18.5,8.3,18.5,18.5c0,10.2-8.3,18.5-18.5,18.5"/>
<line class="st0" x1="541" y1="863.1" x2="335" y2="863.1"/>
<path class="st0" d="M336,863.1c-13.8,0-25,11.2-25,25v10.5V954v35.6"/>

</svg>
