<?xml version="1.0" encoding="utf-8"?>
<!-- Generator: Adobe Illustrator 21.0.2, SVG Export Plug-In . SVG Version: 6.00 Build 0)  -->
<svg id="Gome3" version="1.1" id="图层_1" xmlns="http://www.w3.org/2000/svg" xmlns:xlink="http://www.w3.org/1999/xlink" x="0px" y="0px"
	 viewBox="0 0 640 1008" style="enable-background:new 0 0 640 1008;" xml:space="preserve">
<style type="text/css">
	.st0{fill:none;stroke:#E60039;stroke-width:3;stroke-linecap:round;stroke-linejoin:round;stroke-miterlimit:10;}
	.st1{fill:none;stroke:#E60039;stroke-width:3;stroke-miterlimit:10;}
	.st2{fill:none;stroke:#E60039;stroke-width:3;stroke-miterlimit:1;}
</style>
<g id="sun">
	<path data-async id="XMLID_353_" class="st0" d="M154.8,146.9c-1.8-4.5-2.7-9.4-2.7-14.5c0-22,17.8-39.8,39.8-39.8s39.8,17.8,39.8,39.8"/>
	<path data-async id="XMLID_352_" class="st0" d="M182.1,100.4c3.1-1,6.3-1.5,9.7-1.5"/>
	<path data-async id="XMLID_351_" class="st0" d="M161,121.7c2.6-8.5,8.6-15.5,16.4-19.4"/>
	<path data-async id="XMLID_350_" class="st0" d="M229.6,119.5c5.3-3.7,11.8-5.7,18.8-5.3c16.3,1,28.6,15.1,27.6,31.4"/>
	<path data-async id="XMLID_349_" class="st0" d="M136,106.8c-1.2-2.9-1.8-6.1-1.8-9.5c0-14.4,11.6-26,26-26c8.2,0,15.6,3.8,20.4,9.8"/>
	<line data-async id="XMLID_348_" class="st0" x1="130.6" y1="146.9" x2="205.1" y2="146.9"/>
	<line data-async id="XMLID_347_" class="st0" x1="252.8" y1="146.9" x2="322.3" y2="146.9"/>
	<line data-async id="XMLID_345_" class="st0" x1="118.8" y1="114.2" x2="97.8" y2="126.3"/>
	<line data-async id="XMLID_342_" class="st0" x1="119.7" y1="85.4" x2="96.7" y2="77.3"/>
	<line data-async id="XMLID_343_" class="st0" x1="140.5" y1="62" x2="125.9" y2="41.6"/>
	<line data-async id="XMLID_344_" class="st0" x1="167.1" y1="58.2" x2="173.6" y2="36.1"/>
	<line id="XMLID_346_" class="st0" x1="192.6" y1="70.6" x2="212.1" y2="59.7"/>
</g>
<g id="camera">
	<line id="XMLID_324_" class="st0" x1="388.3" y1="121.4" x2="399.4" y2="121.4"/>
	<circle id="XMLID_323_" class="st0" cx="365.8" cy="157.9" r="17.7"/>
	<path id="XMLID_322_" class="st0" d="M365.8,145.7c6.7,0,12.2,5.5,12.2,12.2"/>
	<circle id="XMLID_321_" class="st0" cx="365.8" cy="157.9" r="22.9"/>
	<path id="XMLID_3_" data-async class="st0" d="M379.5,122.7c0,0,0.3-4.5-4.5-4.5s-18.6,0-18.6,0l-11.1,11.1h-12.7c0,0-9-0.6-9,9s0,38.9,0,38.9
		s-0.4,9.1,7.3,9.1"/>
	<path id="XMLID_4_" class="st0" d="M383.5,133.5c0-3.8,3.9-3.7,3.9-3.7s4,0,12.1,0c8.1,0,8.4,8.4,8.4,8.4s0,27.8,0,38.3
		c0,10.5-9.5,9.9-9.5,9.9"/>
</g>
<g id="rote_x5F_right">
	<path data-async id="XMLID_2_" class="st0" d="M389.3,186.5H570c7.5,0,13.5,6,13.5,13.5s-6,13.5-13.5,13.5c0,0-205.1,0-219.7,0
		c-13.9,0-12.5,8.7-12.5,8.7s-0.3,8.2,11.2,8.2c9.9,0,14.8,2.8,14.8,16.7c0,13.8-14.9,13.6-14.9,13.6s-18.4,0-26.9,0
		c-9.5,0-19,2.8-19,17.7c0,13.3-18.7,13.3-18.7,13.3h-20.9c0,0-13.7-1.4-13.7,13.7s13.1,14.8,13.1,14.8H286c0,0,9.5-0.8,9.5,7.5
		c0,7.6-9.5,7-9.5,7s-17-2.2-17,17c0,19.2,18.5,18,18.5,18h48.1c22.3,0,19.5,16.6,19.5,16.6s-2.2,18.3,18.3,18.3
		s17.8,15.8,17.8,15.8s0,15.5,0,26.7s-15.8,9.9-15.8,9.9h-11c-13.3,0-11,14.4-11,14.4V482c0,0,1.4,12-12,12h-10.7"/>
</g>

<g id="rote_x5F_left">
	<path id="XMLID_1_" class="st0" d="M335.3,186.5H224.2c-7.5,0-13.5,6-13.5,13.5v6.1c0,7.5-6,13.5-13.5,13.5h-2.8"/>
	<circle id="XMLID_340_" class="st0" cx="180.2" cy="219.6" r="6.6"/>
	<path id="XMLID_339_" class="st0" d="M167.4,225.8c2.3,4.7,7.2,8,12.8,8c7.8,0,14.2-6.4,14.2-14.2s-6.4-14.2-14.2-14.2
		c-5.5,0-10.2,3.1-12.6,7.6"/>
	<path id="XMLID_363_" class="st0" d="M173.6,219.4h-7.4c-9.4,0-9.4-12.6-9.4-12.6c0-7.5-6-13.5-13.5-13.5h-72
		c-15.5,0-28,12.6-28,28s12.6,28,28,28c0,0,21.9-1.7,21.9,21.9v9.7c0,0-1.7,20.3,17.2,20.3h33.3c0,0,18.9-0.8,18.9,21.2s20,20,20,20
		s16.4-0.4,16.4-18s14.9-14.9,14.9-14.9s9.3,0.6,9.3,15.9c0,17.6,0,12.5,0,12.5s-3.6,34.1,29.1,34.1c0,0,9.2-0.9,9.2,9.2
		c0,9.9-9.7,9-9.7,9s-15.9-2-15.9,11.2c0,13.3,0,30.4,0,30.4s-1.5,15.1,16.7,15.1s20,0,20,0s14.1-1.5,14.1,14.1s0,44.2,0,44.2
		s1,9.7-8.7,9.7c-9.7,0-9.3,9.3-9.3,9.3v22.9"/>
	<path id="XMLID_327_" class="st0" d="M268.7,546.8c0,0-1.3,12.8,11.2,12.8c10.9,0,10.2-12,10.2-12"/>
	<circle id="XMLID_320_" class="st0" cx="319.6" cy="494" r="11.1"/>
	<line id="XMLID_319_" class="st0" x1="279.4" y1="241" x2="310.5" y2="241"/>
    <line id="XMLID_318_" class="st0" x1="319.7" y1="241" x2="331.9" y2="241"/>

	<path data-async id="XMLID_326_" class="st0" d="M268.7,548.5c0,0-0.8,11-12,11c-11.2,0-10.9-12.3-10.9-12.3"/>
</g>
<g id="left_x5F_ele">
	<path data-async id="XMLID_338_" class="st0" d="M73.7,201.3c-1.2,0-2.4,0.1-3.6,0.3"/>
	<path data-async id="XMLID_337_" class="st0" d="M65,203.2c-6.8,3.2-11.5,10.2-11.5,18.3"/>
	<line data-async id="XMLID_314_" class="st0" x1="147.6" y1="465.8" x2="181.9" y2="465.8"/>
	<line id="XMLID_315_" class="st0" x1="164.7" y1="448.6" x2="164.7" y2="482.9"/>
</g>
<g id="rote_x5F_shop">
	<path id="XMLID_335_" class="st0" d="M291.9,579.5c0,0,0.3-12.3-10.9-12.3s-12,11-12,11"/>
	<path data-async id="XMLID_336_" class="st0" d="M247.5,579.1c0,0-0.6-12,10.2-12c12.5,0,11.2,12.8,11.2,12.8s0,5.8,0,15.7
		c0,0,1.2,28.6-24.1,28.6H92.4c0,0-19.4-1.9-19.4,15.6v55.2"/>
</g>
<g id="bike">
	<line data-async id="XMLID_361_" class="st0" x1="46" y1="597.5" x2="87" y2="597.5"/>
	<line data-async id="XMLID_360_" class="st0" x1="79.9" y1="607.7" x2="103" y2="607.7"/>
	<line data-async id="XMLID_359_" class="st0" x1="136.3" y1="577.7" x2="148.1" y2="577.7"/>
	<polyline data-async id="XMLID_358_" class="st0" points="168.3,567 178.2,574.1 190.4,606.4 	"/>
	<polygon data-async id="XMLID_357_" class="st0" points="146.1,583.9 137.8,607.3 159.7,601 181.9,583.9 	"/>
	<line data-async id="XMLID_356_" class="st0" x1="152.6" y1="592.6" x2="164.8" y2="608.5"/>
	<path id="XMLID_355_" class="st0" d="M126.8,591c-3.4,2.2-6,5.6-7.3,9.5c-0.6,1.8-0.9,3.7-0.9,5.7c0,10,8.1,18.1,18.1,18.1
		c6.6,0,12.3-3.5,15.5-8.7h13.7"/>
	<path id="XMLID_354_" class="st0" d="M195.2,589.9c7.2,2.1,12.4,8.7,12.4,16.5c0,9.5-7.7,17.2-17.2,17.2c-9.5,0-17.2-7.7-17.2-17.2
		c0-2.1,0.4-4,1-5.8"/>
</g>
<g id="light">
	<path id="XMLID_334_" class="st0" d="M87.7,723.3v-10.6c0,0,0.8-11.5-13.9-11.5c-13.1,0-12.5,11.1-12.5,11.1v11.1"/>
	<line id="XMLID_333_" class="st0" x1="54" y1="731.1" x2="94.5" y2="731.1"/>
	<line id="XMLID_332_" class="st0" x1="82.5" y1="731.1" x2="82.5" y2="745.9"/>
	<line id="XMLID_331_" class="st0" x1="66.7" y1="731.1" x2="66.7" y2="745.9"/>
	<path id="XMLID_330_" class="st0" d="M75.3,708c-0.6-0.1-1.3-0.1-2-0.1H72"/>
	<path id="XMLID_329_" class="st0" d="M81.2,717v-1.8c0,0,0.4-3.3-2-5.5"/>
</g>
<g id="guide">
	<line id="XMLID_316_" class="st0" x1="54.4" y1="763" x2="94.5" y2="763"/>
	<path class="st0" d="M75.8,764.1v31.4v37.1c0,8.7,7.1,15.7,15.7,15.7H117h33h15.7h33.4c0,0,18.2,1,18.2,18.6s-17.8,18.5-17.8,18.5
		h-28.1c0,0-11.6-1-11.6,11.8c0,12.8,0,28.6,0,28.6"/>
	<path id="XMLID_382_" class="st0" d="M176.4,942.5c0,9.1-7.4,16.5-16.5,16.5s-16.5-7.4-16.5-16.5c0-9.1,7.4-16.5,16.5-16.5"/>
	<circle id="XMLID_395_" class="st0" cx="159.8" cy="942.5" r="7.2"/>
</g>
<path data-async id="XMLID_396_" class="st0" d="M169.7,942.5h21.9c0,0,26.4,1.2,46.8-16c22.1-18.6,20.8-44.7,20.8-44.7s0-33.7,0-53
	S240.8,811,240.8,811h-69.4c0,0-25.4,1.3-25.4-24c0-21.9,24.2-21.5,24.2-21.5h23.3"/>
<g id="guide_x5F_ele">
	<path data-async id="XMLID_378_" class="st0" d="M243.4,904.3c1.3-2.5,2.4-5.2,3.2-8.1"/>
	<path data-async id="XMLID_159_" class="st0" d="M216.7,928.5c0,0,13.9-5,23.3-18.6"/>
	<path data-async id="XMLID_381_" class="st0" d="M154.1,783.5c-0.2,1.1-0.4,2.3-0.3,3.6"/>
	<path data-async id="XMLID_379_" class="st0" d="M168.4,773.5c0,0-9.4-0.3-13,6.5"/>
	<line data-async id="XMLID_389_" class="st0" x1="212" y1="811" x2="212" y2="791"/>
	<path data-async id="XMLID_388_" class="st0" d="M218,795.5c0,0-1.3,2.6-6,2.6s-10-5.2-9-10.5l9-26.6l5.8,15.7"/>
	<circle id="XMLID_394_" class="st0" cx="226.3" cy="785.9" r="12.6"/>
	<line id="XMLID_392_" class="st0" x1="226.3" y1="782.5" x2="226.3" y2="773.3"/>
	<line id="XMLID_391_" class="st0" x1="232.2" y1="780.4" x2="232.2" y2="775.5"/>
	<line id="XMLID_393_" class="st0" x1="226.3" y1="791" x2="226.3" y2="811"/>
</g>

<path class="st0" d="M243,765.5h24.3h20.2c12.9,0,23.3,10.4,23.3,23.3V929l0.7,36v56"/>

</svg>
