<?xml version="1.0" encoding="utf-8"?>
<!-- Generator: Adobe Illustrator 21.0.2, SVG Export Plug-In . SVG Version: 6.00 Build 0)  -->
<svg id="Gome6" version="1.1" id="图层_1" xmlns="http://www.w3.org/2000/svg" xmlns:xlink="http://www.w3.org/1999/xlink" x="0px" y="0px"
	 viewBox="0 0 640 1008" style="enable-background:new 0 0 640 1008;" xml:space="preserve">
<style type="text/css">
	.st0{fill:none;stroke:#E60039;stroke-width:3;stroke-miterlimit:10;}
	.st1{fill-rule:evenodd;clip-rule:evenodd;fill:none;stroke:#E60039;stroke-width:3;stroke-miterlimit:10;}
	.st2{fill:none;stroke:#EB6D73;stroke-width:1.6;stroke-linecap:round;stroke-linejoin:round;stroke-miterlimit:10;}
	.st3{fill:none;stroke:#EB6D73;stroke-width:2;stroke-linecap:round;stroke-linejoin:round;stroke-miterlimit:10;}
	.st4{fill:none;stroke:#E60039;stroke-width:3;stroke-linecap:round;stroke-linejoin:round;stroke-miterlimit:10;}
	.st5{fill:#C30D23;}
</style>
<g id="left_x5F_line">
	<path class="st0" d="M319-15.8v55.5c0,5.7-4.6,10.3-10.3,10.3H226h-10.7H194h-19.3c-7,0-12.7,5.7-12.7,12.7s5.7,12.7,12.7,12.7h7.3
		h21.3H232c7,0,12.7,5.7,12.7,12.7c0,7-5.7,12.7-12.7,12.7h-16h-21.3H157"/>
	<path data-async id="XMLID_188_" class="st0" d="M154,101.1c0,0-27.3-1.1-27.3,24.7c0,4.7,0,11.6,0,17.7c0,0-0.3,17.1-20.9,17.1
		s-29.6,7-29.6,18.7c0,0-2.9,18.7,29.1,18.7s97.2,0,97.2,0s18.6-1,18.6,16.7c0,13.6-20,13.3-20,13.3l-33.1-0.5H60.2
		c-15.7,0-16.7,15.8-16.7,15.8v37.1c0,0-0.7,17.6,13.6,17.6c0,0,17.4,0.2,17.4,17.5c0,17.3,16.6,15.7,16.6,15.7h27.4
		c0,0,20.8-1,20.8,19.7v39.1c0,0-2,16.9,14.8,16.9s15.3,14.5,15.3,14.5v74.5c0,0-0.4,8.4,8.9,8.4c10.6,0,14.4,0,14.4,0
		s8.5,0.7,8.5-7.4c0-13.1-0.2-18.2,13.3-18.2"/>
	<path data-async id="XMLID_898_" class="st0" d="M134.8,123.6c0-7.3,3.5-11.2,7.3-13.2"/>
	<path data-async class="st0" d="M100,154h-7.1c-2.9,0-5.3-2.4-5.3-5.3c0-2.9,2.4-5.3,5.3-5.3l2.9-0.1c3.1,0,5.6-2.5,5.6-5.6v-9.4
		c0-3.6,2.9-6.6,6.6-6.6s6.6,2.9,6.6,6.6v7.1v4.7c0,7.6-6.2,13.8-13.8,13.8"/>
	<line class="st0" x1="105.8" y1="163.1" x2="105.8" y2="194.8"/>
	<path data-async id="XMLID_900_" class="st0" d="M163.5,152.6l-14.7,4.2v17.6l9.8-1.7v20c0,0-0.5,5,3.6,5c4.1,0,24.3,0,24.3,0s5.1,0,5.1-4.2
		s0-20.9,0-20.9l9.5,1.7v-17.6l-13.9-4.2c0,0-3.3,9.9-10.4,9.9s-9.2-2.7-9.2-2.7"/>
	<line id="XMLID_883_" class="st0" x1="163.9" y1="190" x2="185.7" y2="190"/>
	<path id="XMLID_899_" class="st0" d="M148.3,108.3c2.1-0.3,3.7-0.3,3.7-0.3"/>
	<path data-async id="XMLID_846_" class="st0" d="M269.8,478.7c0,5.4-4.6,9.7-10.2,9.7s-10.2-4.3-10.2-9.7h-34.6"/>
	<path data-async id="XMLID_838_" class="st0" d="M290.3,478.7c0,5.4-4.6,9.7-10.2,9.7s-10.2-4.3-10.2-9.7"/>
	<path data-async id="XMLID_864_" class="st0" d="M310.8,478.7c0,5.4-4.6,9.7-10.2,9.7c-5.7,0-10.2-4.3-10.2-9.7"/>
	<path id="XMLID_445_" class="st0" d="M310.8,478.7c0,5.4,4.6,9.7,10.2,9.7c5.7,0,10.2-4.3,10.2-9.7h23.4"/>
</g>
<g id="ship1">
	<path data-async class="st1" d="M339.5,448.3h-37.1c-1.1,0-1.7,1.1-1,1.9l6.9,8.7c1.9,2.4,5,3.9,8.2,3.9h39.1c3.5,0,6.8-1.7,8.7-4.6l8.6-13
		c0.5-0.8-0.1-1.9-1.1-1.9h-27.1L339.5,448.3z"/>
	<line data-async class="st0" x1="316.5" y1="453.2" x2="316.5" y2="453.2"/>
	<line data-async class="st0" x1="322.9" y1="453.2" x2="322.9" y2="453.2"/>
	<line data-async class="st0" x1="329.3" y1="453.2" x2="329.3" y2="453.2"/>
	<line data-async class="st0" x1="335.7" y1="453.2" x2="335.7" y2="453.2"/>
	<line data-async class="st0" x1="342.1" y1="453.2" x2="342.1" y2="453.2"/>
	<path data-async class="st0" d="M348.5,450.8c0,1.3,1.1,2.4,2.6,2.4c1.4,0,2.6-1.1,2.6-2.4v-4.8"/>
	<path data-async class="st0" d="M358.7,450.8c0,1.3-1.1,2.4-2.6,2.4c-1.4,0-2.6-1.1-2.6-2.4v-7.3"/>
	<path data-async class="st0" d="M310.1,448.3v-17c0-1.3,1.1-2.4,2.6-2.4h20.5c1.4,0,2.6,1.1,2.6,2.4v4.8h25.6c1.4,0,2.6,1.1,2.6,2.4v4.8"/>
	<path data-async class="st0" d="M353.6,436.2h-10.2v-20.6c0-0.7,0.6-1.2,1.3-1.2h7.7c0.7,0,1.3,0.5,1.3,1.2V436.2z"/>
	<ellipse data-async class="st0" cx="328" cy="436.2" rx="2.6" ry="2.4"/>
	<ellipse data-async class="st0" cx="317.7" cy="436.2" rx="2.6" ry="2.4"/>
	<line class="st0" x1="343.3" y1="422.9" x2="353.6" y2="422.9"/>
</g>
<g id="leftBottom">
	<path id="XMLID_876_" class="st0" d="M188.1,359.3h-18.8c0,0-10.3-1.9-10.3-11.9s12.8-11.3,12.8-11.3"/>
	<path id="XMLID_873_" class="st0" d="M171.4,340.1c0,0,1.3-17.2,22.1-17.2s20.5,17.2,20.5,17.2"/>
	<path id="XMLID_179_" class="st0" d="M214,336c0,0,10.3,0,12.3,9.6c2.5,11.8-10.3,13.6-10.3,13.6"/>
	<line id="XMLID_880_" class="st0" x1="237.1" y1="359.3" x2="203.8" y2="359.3"/>
	<line data-async id="XMLID_866_" class="st0" x1="294.2" y1="354" x2="269.4" y2="354"/>
	<line data-async id="XMLID_870_" class="st0" x1="225.1" y1="367.2" x2="218.1" y2="367.2"/>
	<line data-async id="XMLID_868_" class="st0" x1="237.1" y1="367.2" x2="230.9" y2="367.2"/>
	<line id="XMLID_867_" class="st0" x1="275.1" y1="367.2" x2="243.4" y2="367.2"/>
	<path id="XMLID_882_" class="st0" d="M214.8,336.1h31.5c12.5,0,11.9-11.3,11.9-11.3v-8.4c0,0-1.6-8.6,10.6-8.6
		c12.2,0,11.3-10.7,11.3-10.7v-35.4c0,0,1.2-12.2-16.5-12.2s-16.7-10.6-16.7-10.6s-3.1-10.9,16.4-10.9c19.5,0,28.6,0,28.6,0
		s10.4-1,10.4,10.6s4.2,12.9,10.8,12.9c6.6,0,13.9,0,13.9,0s7,0.7,7,7.6s3.1,10.9,11.8,10.9s7.7,7.3,7.7,7.3v17.1
		c0,0-0.8,10.9,8.1,10.9c8.9,0,10.8-10.3,10.8-10.3v-11.7c0,0-1.2-6.4,9.5-6.4s8.4-7.9,8.4-7.9s-0.8-6.7,9.4-6.7s31.3,0,31.3,0
		s13.8,0,13.8,12.9s0,30.2,0,30.2s0,8.4-7.6,8.4s-7.2,6.8-7.2,6.8s0.1,6.1,7.7,6.1s6.5,8.4,6.5,8.4s-1,11.2,12.2,11.2
		c13.2,0,42.5,0,42.5,0s10.4,0.7,10.4,12.9s12,11.4,12,11.4h7.8c0,0,10.1-0.8,10.1-11.7v-10.9c0,0,0.3-8.6,8.7-8.6s8.9,8.4,8.9,8.4
		s-0.5,8.4,7.8,8.4c8.4,0,12.3,0,12.3,0s8.9-0.9,8.9,5.9s-0.4,21.7-0.4,21.7c0,4-3.9,5.2-7.1,5.2c-3.1,0-11.2,0.5-11.2-5.9
		c0-6.4-4.4-8.9-9.9-8.9s-9.7,0-9.7,0s-10.4-0.7-10.4,6.7c0,7.4-4.2,8.1-4.2,8.1h-12.8c0,0-14.4-1.2-14.4,10.2s-9.7,9.1-9.7,9.1
		s-11.8-1.2-11.8,10.1c0,11.4,0,19.8,0,19.8s-1.8,10.6,12.8,10.6s29.5,0,29.5,0s12,0.5,12-7.7s7.6-9.9,10.4-9.9
		c2.9,0,9.4,2.2,9.4,8.9s5.7,9.5,10.1,9.5s11.9,0,11.9,0s8.4,0.5,8.4,8"/>
	<ellipse id="XMLID_872_" class="st0" cx="589" cy="465.2" rx="7.1" ry="6.7"/>
</g>
<g id="center_x5F_line">
	<path data-async class="st0" d="M264.5,105.4v14.2c0,7.1-5.7,12.8-12.8,12.8h-4.9h-9.2h-4.2c-6,0-10.9,4.9-10.9,10.9v21.1
		c0,6,4.9,10.9,10.9,10.9l7.9,0.4c6.2,0,11.2,5,11.2,11.2l0.4,8.1c0,6,4.9,10.9,10.9,10.9l5.4-0.1c6.2,0,11.2,5,11.2,11.2v7.2"/>
	<path id="XMLID_187_" class="st0" d="M254,101.1c35.1,0,67.1,0,72.1,0c11.7,0,19.8,5.4,19.8,18.5s19,11.5,19,11.5h333.7
		c7.6,0,13.8,5.9,13.8,13.1c0,7.2-6.2,13.1-13.8,13.1c0,0-82.6,0-97.6,0c-14.2,0-12.8,8.4-12.8,8.4s-0.3,7.9,11.5,7.9
		c10.1,0,15.2,2.7,15.2,16.2c0,13.4-15.3,13.2-15.3,13.2s-18.8,0-27.5,0c-9.7,0-19.5,2.7-19.5,17.1c0,12.9-19.2,12.9-19.2,12.9
		c-13.2,0-11.2,11.2-11.2,11.2s0,22.4,0,25.4s-0.7,9.2,7.7,9.2s8.4,10.3,8.4,10.3s0,8.5,0,12.8s-1.4,7.3-7.7,7.3s-4.4-7.4-4.4-7.4
		s1.2-8.4-8.9-8.4s-8-9.2-8-9.2v-16.8c0,0,1-6.9-7.3-6.9c-8.4,0-6.4,7.4-6.4,7.4s1.9,9.1-9.6,9.1s-10.8,6.6-10.8,6.6s0,7.3,0,17.5
		s-9.8,9.2-14.3,9.2c-4.5,0-7.7,2.3-7.7,7.9c0,5.6,8,5.6,8,5.6s106.9,0,111.8,0s10.5,0.3,10.5,8c0,9.9,8.8,8.4,8.8,8.4s21.8,0,34,0
		c11,0,10.4,6.6,10.4,6.6s0.8,6.6-10.1,6.6c-13.9,0-11.8,8.2-11.8,11.9c0,4.7-6.3,4.7-6.3,4.7h-5.5c-5.9,0-5.2,6.9-5.2,6.9v6
		c0,5.7,6.2,5.9,6.2,5.9c1.8,0,3.4,0,4.8,0c10,0,9.3,5.6,9.3,11.4c0,8.5,0.2,14.1,12.5,14.1c9.7,0,9.1,9.4,9.1,9.4v11.6
		c0,0,1.6,9.1-9.6,9.1c-12.3,0-10.7,8.8-10.7,8.8s0,14.8,0,21.8c0,0,0,5.8,0,14.8c0,10.1,10.2,10.8,10.2,10.8h33.7
		c12.6,0,11.9,12.1,11.9,12.1v8.2l-0.1,15.2v13.4"/>
	<g id="car">
		<line data-async class="st0" x1="535.9" y1="115.3" x2="540.3" y2="115.3"/>
		<path data-async class="st0" d="M533.7,121.6h2.2c2.4,0,4.4-1.9,4.4-4.2v-7.6c0-1.1-0.5-2.2-1.3-2.9l-8.2-7.8c-1.7-1.6-3.9-2.4-6.2-2.4h-8.5
			v25h6.6"/>
		<path data-async class="st0" d="M496.3,121.6h19.8V94.5c0-3.5-3-6.2-6.6-6.2h-26.4c-3.6,0-6.6,2.8-6.6,6.2v20.8c0,3.5,3,6.2,6.6,6.2h2.2"/>
		<polyline data-async class="st0" points="532.6,100.7 520.5,100.7 520.5,109.1 540.3,109.1 		"/>
		<ellipse data-async class="st0" cx="490.8" cy="122.6" rx="5.5" ry="5.2"/>
		<ellipse data-async class="st0" cx="490.8" cy="122.6" rx="1.1" ry="1"/>
		<ellipse data-async class="st0" cx="528.2" cy="122.6" rx="1.1" ry="1"/>
		<ellipse data-async class="st0" cx="528.2" cy="122.6" rx="5.5" ry="5.2"/>
		<line data-async class="st0" x1="476.5" y1="113.2" x2="516.1" y2="113.2"/>
		<line data-async class="st0" x1="480.9" y1="109.1" x2="480.9" y2="113.2"/>
		<line data-async class="st0" x1="485.3" y1="109.1" x2="485.3" y2="113.2"/>
		<line data-async class="st0" x1="489.7" y1="109.1" x2="489.7" y2="113.2"/>
		<line data-async class="st0" x1="494.1" y1="109.1" x2="494.1" y2="113.2"/>
		<line data-async class="st0" x1="498.5" y1="109.1" x2="498.5" y2="113.2"/>
		<line data-async class="st0" x1="502.9" y1="109.1" x2="502.9" y2="113.2"/>
		<line data-async class="st0" x1="507.3" y1="109.1" x2="507.3" y2="113.2"/>
		<line class="st0" x1="511.7" y1="109.1" x2="511.7" y2="113.2"/>
	</g>
</g>
<g id="center_x5F_ele">
	<path data-async class="st0" d="M337.7,253.2c5.7,0,10.4-4.6,10.4-10.4l-0.1-3.9c0-5.4,4.4-9.8,9.8-9.8h9.4"/>
	<path data-async class="st0" d="M399.5,259c0-6.2-5-11.2-11.2-11.2l-4.4-0.1c-6,0-10.9-4.9-10.9-10.9v-9.1c0-5,4-9,9-9l5.3-0.4
		c5.9,0,10.6-4.8,10.6-10.6l0.2-4.3c0-6.5,5.3-11.8,11.8-11.8h15.3c5.5,0,10,4.5,10,10l0.1,3.3c0,4.7,3.8,8.4,8.4,8.4h39.9
		c7.1,0,12.8-5.7,12.8-12.8l-0.2-11c0-6.5,5.3-11.8,11.8-11.8l4.6-0.1c4.6,0,8.3,3.7,8.3,8.3l0.1,3.9c0,3.5,2.8,6.3,6.3,6.3h3.4h7.2
		h4c5.8,0,10.4,4.7,10.4,10.4"/>
	<line data-async class="st0" x1="448" y1="293.5" x2="471.7" y2="293.5"/>
	<path data-async class="st0" d="M601.8,342.8v13.6c0,3.9-3.2,7.1-7.1,7.1h-5.9"/>
	<line data-async class="st2" x1="445.4" y1="312.6" x2="451.3" y2="312.6"/>
	<path data-async class="st0" d="M611.1,515.4c-6.1,0-11-4.4-11-9.9"/>
	<path data-async class="st0" d="M619.2,510.2c-6.1,0-11-4.4-11-9.9v-9.5"/>
	<line data-async class="st0" x1="625.7" y1="510.2" x2="633.2" y2="510.2"/>
	<line data-async class="st3" x1="658.5" y1="165.9" x2="700.6" y2="165.9"/>
	<line class="st3" x1="641.4" y1="165.9" x2="648" y2="165.9"/>
</g>
<g id="fish">
	<ellipse data-async class="st0" cx="682.7" cy="268.9" rx="3.2" ry="3"/>
	<path data-async class="st0" d="M755.8,246.9c0-5.7-4.8-10.2-10.8-10.2c-4.2,0-7.8,2.2-9.6,5.5c-1.8-3.3-5.4-5.5-9.6-5.5
		c-6,0-10.8,4.6-10.8,10.2h16.7v3.5c0,3.1-2.6,5-6.5,5h-46.3c-4.3,0-7.8,3.9-7.8,8v14.2c0,4.1,3.5,7,7.8,7h2.4v6.2h50.9
		c4.3,0,7.8-2.9,7.8-7v-36.7H755.8z"/>
	<rect data-async x="685.5" y="252.5" class="st0" width="5" height="5"/>
	<g>
		<path data-async class="st0" d="M689.4,249.9c0,0,2.3,0.1,3.5-0.1c1.5-0.2,3.3-2.3,3.9-3.4c0.6-1.2,0.4-3.8,0.3-4c-0.1-0.2-2.7-0.4-3.9,0.2
			c-1,0.5-3,2.1-3.4,3.1C689,247.4,689.4,249.9,689.4,249.9z"/>
		<path data-async class="st0" d="M689.4,242.5c0,0,2.3,0.1,3.5-0.1c1.5-0.2,3.3-2.3,3.9-3.4c0.6-1.2,0.4-3.8,0.3-4c-0.1-0.2-2.7-0.4-3.9,0.2
			c-1,0.5-3,2.1-3.4,3.1C689,240,689.4,242.5,689.4,242.5z"/>
		<path data-async class="st0" d="M688.6,249.9c0,0-2.3,0.1-3.5-0.1c-1.5-0.2-3.3-2.3-3.9-3.4c-0.6-1.2-0.4-3.8-0.3-4c0.1-0.2,2.7-0.4,3.9,0.2
			c1,0.5,3,2.1,3.4,3.1C689,247.4,688.6,249.9,688.6,249.9z"/>
		<path data-async class="st0" d="M688.6,242.5c0,0-2.3,0.1-3.5-0.1c-1.5-0.2-3.3-2.3-3.9-3.4c-0.6-1.2-0.4-3.8-0.3-4c0.1-0.2,2.7-0.4,3.9,0.2
			c1,0.5,3,2.1,3.4,3.1C689,240,688.6,242.5,688.6,242.5z"/>
		<path data-async class="st0" d="M688.7,237.8c0,0,1.7-1.4,2.5-2.3c0.9-1.2,0.7-3.8,0.3-5c-0.4-1.2-2.6-3-2.7-3.1c-0.2-0.1-2.2,1.4-2.7,2.7
			c-0.4,1-0.6,3.5-0.2,4.5C686.6,236.3,688.7,237.8,688.7,237.8z"/>
	</g>
	<g>
		<path class="st0" d="M683.9,299.9c2.7,0,2.7,3,5.5,3c2.7,0,2.7-3,5.5-3c2.7,0,2.7,3,5.5,3c2.7,0,2.7-3,5.5-3c2.7,0,2.7,3,5.5,3
			c2.7,0,2.7-3,5.5-3c2.7,0,2.7,3,5.5,3c2.7,0,2.7-3,5.5-3s2.7,3,5.5,3"/>
	</g>
</g>
<g id="plane">
	<path data-async class="st1" d="M684.1,73.2l0.4,0c0.8,0,1.5,0.2,2,0.8l5.2,5.3c1,1,2.5,1.6,4,1.6l18-0.3l-5.5-18.6c-0.2-0.8,0.4-1.5,1.2-1.5
		l1.3-0.1c2-0.1,4,0.8,5.3,2.3l15.2,17.8c0,0,6.1,0,13.5,0c7.9,0,11.3,2.4,11.4,4.7c0.1,2.3-2.7,5.1-11.2,5.2
		c-12.9,0.2-48.2,0.4-48.2,0.4c-4.3,0-8.1-2.4-9.7-6.2l-4-9.7C682.7,74.1,683.3,73.2,684.1,73.2z"/>
	<path data-async class="st1" d="M709.4,95.2l-6.2,8.8c-0.6,0.8,0,1.9,1,1.9l0.9,0c1.7,0.1,3.5-0.5,4.9-1.5l13.2-9.4"/>
	<line data-async class="st0" x1="702.7" y1="84" x2="702.8" y2="84.8"/>
	<line data-async class="st0" x1="740.1" y1="83.6" x2="740.1" y2="84.4"/>
	<line data-async class="st0" x1="733.8" y1="83.7" x2="733.9" y2="84.5"/>
	<line data-async class="st0" x1="727.6" y1="83.7" x2="727.6" y2="84.5"/>
	<line data-async class="st0" x1="721.4" y1="83.8" x2="721.4" y2="84.6"/>
	<line data-async class="st0" x1="709" y1="83.9" x2="709" y2="84.7"/>
	<line class="st0" x1="715.2" y1="83.9" x2="715.2" y2="84.6"/>
</g>
<g id="ship">
	<path data-async id="XMLID_375_" class="st0" d="M807,382.8c0,0,24.7,7.5,26.1,35.7c0,0-11.8-3.7-25.9,0.4c0,0-8.4-5-20-0.7
		c0,0,18.4-7.8,19.7-34.6"/>
	<polyline data-async id="XMLID_371_" class="st0" points="807,391.8 807,424 784.6,424 786.6,428.3 	"/>
	<line data-async id="XMLID_370_" class="st0" x1="818.1" y1="424.1" x2="823.2" y2="424.1"/>
	<polyline data-async id="XMLID_180_" class="st0" points="825.7,424.1 843.4,424.1 836.6,433.2 814.8,433.2 	"/>
	<g>
		<path data-async class="st0" d="M758.5,435.8c2.7,0,2.7,3,5.5,3c2.7,0,2.7-3,5.5-3c2.7,0,2.7,3,5.5,3c2.7,0,2.7-3,5.5-3c2.7,0,2.7,3,5.5,3
			c2.7,0,2.7-3,5.5-3c2.7,0,2.7,3,5.5,3c2.7,0,2.7-3,5.5-3s2.7,3,5.5,3"/>
	</g>
</g>
<g id="right_x5F_line">
	<path class="st0" d="M861.8,289.5c5.4,0,9.8-4.4,9.8-9.8l0.1-19.1c0-7.1-6.1-12.9-13.6-12.9l-7.2-0.4c-7.1,0-12.8-5.4-12.8-12.1
		V231v-6.2v-2.7c0-9.2-7.9-16.7-17.7-16.7h-3.1h-2l-2.7,0c-7.1,0-12.8-5.4-12.8-12.1v-5.6v-14.5v-5.2c0-6.5-5.6-11.8-12.5-11.8h-9.2
		h-15.1h-3.9c-7.4,0-13.5-5.7-13.5-12.7s6-12.7,13.5-12.7h79.5c6.7,0,12.2,5.2,12.2,11.5l-0.1,3.3c0,5.1,4.4,9.3,9.8,9.3h7.8h17.8
		h8.1c6.1,0,11,4.7,11,10.4l0.2,4.2c0,3.9,3.4,7.1,7.5,7.1h4.2h12.5h6.1c6.1,0,11,4.7,11,10.4v24c0,7.7-6.6,13.9-14.7,13.9l-7.6,0.3
		c-8.3,0-15,6.4-15,14.2l0.2,13.6c0,9.4-8,17-17.9,17"/>
	<path class="st0" d="M891.3,269.9c-4.1,0-7.5,3.2-7.5,7.1l-0.1,3c0,5.1,4.4,9.3,9.8,9.3h9.1h11.2h8.1c10.2,0,18.4,7.8,18.4,17.5
		l0.3,8.3c0,5.1,4.4,9.3,9.8,9.3l4.8,0h5.9h5.5c6.1,0,11,4.7,11,10.4v9c0,8.3-7.1,15-15.8,15l-11.3,0.1c-8.3,0-15,6.4-15,14.2v5.8
		v29.6v7.6c0,3.1-2.5,5.6-5.6,5.6l-2,0.3c-3.2,0-5.8,2.4-5.8,5.4v3.7v14v3.6c0,4.5-3.9,8.2-8.7,8.2c-4.8,0-8.7-3.7-8.7-8.2l-0.2-5.3
		v-61.2v-4.2c0-5.4-4.6-9.8-10.3-9.8L890,368c-5.4,0-9.9-4.2-9.9-9.3v-5.4v-6.6l-0.2-3.9c0-7.4-6.3-13.4-14.2-13.4l-7.5-0.5
		c-6.1,0-11-4.7-11-10.4v-14.9c0-7.9,6.7-14.2,15-14.2"/>
</g>
<g id="right_x5F_ele">
	<line class="st0" x1="782.9" y1="153.6" x2="782.9" y2="133.7"/>
	<path data-async id="XMLID_446_" class="st0" d="M929.8,182.9c-1.6-0.3-2.7,0-2.7,0"/>
	<path data-async id="XMLID_366_" class="st0" d="M939.8,192.7c0-5.4-2.6-8.3-5.4-9.9"/>
	<line data-async class="st0" x1="837.4" y1="208" x2="941.3" y2="208"/>
	<line data-async class="st0" x1="876.9" y1="258" x2="904.5" y2="258"/>
	<path data-async class="st0" d="M940,324.5h-25.2c-6.5,0-11.8,5.3-11.8,11.8v13.6c0,4.4,3.6,8.1,8.1,8.1l2.8,0.2c4.7,0,8.4,3.8,8.4,8.4v53.9"
		/>
	<path class="st3" d="M908.8,463.6c-5.5,0-10-4.5-10-10"/>
</g>


</svg>
