<?xml version="1.0" encoding="utf-8"?>
<!-- Generator: Adobe Illustrator 21.0.2, SVG Export Plug-In . SVG Version: 6.00 Build 0)  -->
<svg id="Gome9" version="1.1" id="图层_1" xmlns="http://www.w3.org/2000/svg" xmlns:xlink="http://www.w3.org/1999/xlink" x="0px" y="0px"
	 viewBox="0 0 640 1008" style="enable-background:new 0 0 640 1008;" xml:space="preserve">
<style type="text/css">
	.st0{fill:none;stroke:#E60039;stroke-width:3;stroke-miterlimit:10;}
	.st1{fill:none;stroke:#E60039;stroke-width:1;stroke-miterlimit:1;}
	.st2{fill:none;stroke:#E60039;stroke-width:3;stroke-linecap:round;stroke-linejoin:round;stroke-miterlimit:10;}
</style>
<g id="left_x5F_ele">
	<path class="st0" d="M112,353.9c0-8.7-7.1-15.8-15.8-15.8s-15.8,7.1-15.8,15.8s7.1,15.8,15.8,15.8H109"/>
	<path data-async class="st0" d="M109,342.2c0-11.9,9.6-21.5,21.5-21.5c11.1,0,20.3,8.5,21.4,19.3c2.2-1.2,4.7-1.8,7.4-1.8
		c8.7,0,15.8,7.1,15.8,15.8s-7.1,15.8-15.8,15.8h-27.8"/>
	<path class="st0" d="M144,342.2c0-7.5-6-13.5-13.5-13.5"/>
	<path class="st0" d="M95.1,330.2c-27.1-18.9-45.9-48.7-50.2-83.1"/>
	<g id="line">
    	<path class="st0" d="M44.3,224.2c0.1-1,0.1-2,0.2-3"/>
    	<path class="st0" d="M44.9,218.2c0.2-2,0.5-3.9,0.8-5.8"/>
    	<path class="st0" d="M46.2,209.5c0.4-1.9,0.8-3.8,1.3-5.7"/>
    	<path class="st0" d="M48.2,200.9c0.5-1.9,1.1-3.8,1.7-5.6"/>
    	<path class="st0" d="M50.8,192.5c0.7-1.9,1.4-3.7,2.1-5.5"/>
    	<path class="st0" d="M54.1,184.3c0.8-1.8,1.6-3.6,2.5-5.3"/>
    	<path class="st0" d="M57.9,176.4c0.9-1.7,1.9-3.4,2.9-5.1"/>
    	<path class="st0" d="M62.3,168.7c1-1.7,2.1-3.3,3.3-4.9"/>
    	<path class="st0" d="M67.3,161.4c1.2-1.6,2.4-3.1,3.6-4.7"/>
    	<path class="st0" d="M72.8,154.5c1.3-1.5,2.6-2.9,3.9-4.4"/>
    	<path class="st0" d="M78.8,148c1.4-1.4,2.8-2.8,4.2-4.1"/>
    	<path class="st0" d="M85.2,142c1.5-1.3,3-2.5,4.5-3.8"/>
    	<path class="st0" d="M92.1,136.5c1.6-1.2,3.2-2.3,4.8-3.4"/>
    	<path class="st0" d="M99.3,131.4c1.7-1.1,3.3-2.1,5-3"/>
    	<path class="st0" d="M106.9,126.9c1.7-0.9,3.5-1.8,5.3-2.7"/>
    	<path class="st0" d="M114.9,123c1.8-0.8,3.6-1.6,5.4-2.3"/>
    	<path class="st0" d="M123.1,119.7c1.8-0.7,3.7-1.3,5.6-1.9"/>
    	<path class="st0" d="M131.5,117c1-0.3,1.9-0.5,2.9-0.8"/>
    </g>


	<rect data-async x="146" y="83.2" class="st0" width="25" height="19"/>
	<polyline data-async class="st0" points="145,87.2 139.5,87.2 139.5,97.1 145,97.1 	"/>
	<polygon data-async class="st0" points="171,90 182.7,82.8 182.7,101.8 171,94.6 	"/>
	<rect data-async x="150" y="110.2" class="st0" width="17" height="28"/>
	<line data-async class="st0" x1="159" y1="102.2" x2="159" y2="138.2"/>
	<line data-async class="st0" x1="167" y1="120.2" x2="150.5" y2="120.2"/>
	<line data-async class="st0" x1="166.5" y1="128.2" x2="151" y2="128.2"/>
	<rect data-async x="150" y="47.7" class="st0" width="17" height="28"/>
	<line data-async class="st0" x1="159" y1="83.7" x2="159" y2="47.7"/>
	<line data-async class="st0" x1="169" y1="65.7" x2="152.5" y2="65.7"/>
	<line class="st0" x1="168.5" y1="57.7" x2="153" y2="57.7"/>
	<path class="st0" d="M215.3,124.5c-10.7-5.2-22.2-8.8-34.4-10.5"/>
	<path class="st0" d="M210.6,298.7c-13.3,9.5-29.6,15-47.1,15c-45,0-81.5-36.5-81.5-81.5s36.5-81.5,81.5-81.5s81.5,36.5,81.5,81.5"
		/>
	<polyline data-async class="st0" points="228,182.2 224.5,188.7 212,188.7 206,180.2 209.5,175.2 198.5,168.7 193.5,170.7 185.5,163.2
		184.5,154.7 	"/>
	<polyline data-async class="st0" points="110.5,172.2 124.5,191.2 121.5,204.7 143,218.7 134,236.7 118.5,236.7 110.5,226.2 101,226.7
		97,235.7 82,232.2 	"/>
	<polyline data-async class="st0" points="183.5,252.2 174.5,243.7 167,246.2 157.5,244.2 154.5,249.7 159.5,258.2 148.5,264.7 148.5,272.7
		163,279.2 170.5,274.2 179.5,284.7 	"/>
	<polygon data-async class="st0" points="194,228.2 194,190.2 155,190.2 155,216.7 183.5,216.7 	"/>
	<line data-async class="st0" x1="184.5" y1="198.7" x2="163.5" y2="198.7"/>
	<line class="st0" x1="184.5" y1="206.7" x2="173" y2="206.7"/>
	<polyline class="st0" points="239,90.2 225,90.2 225,104.2 	"/>
	<rect data-async x="232.5" y="98.7" class="st0" width="72" height="59.5"/>
	<rect data-async x="241" y="107.7" class="st0" width="55" height="41.5"/>
	<polyline class="st0" points="290.5,131.2 277,131.2 271,119.7 263.5,139.7 259.5,131.7 247.5,131.7 	"/>
	<line class="st0" x1="266" y1="157.7" x2="266" y2="230.7"/>
	<line data-async class="st0" x1="285" y1="174.7" x2="299" y2="174.7"/>
	<line data-async class="st0" x1="285" y1="184.2" x2="299" y2="184.2"/>
	<line class="st0" x1="285" y1="193.7" x2="299" y2="193.7"/>
	<rect data-async x="202" y="231" class="st0" width="115" height="30.5"/>
	<circle data-async class="st0" cx="281" cy="246.3" r="3"/>
	<circle class="st0" cx="300" cy="246.3" r="8"/>
	<rect data-async x="202" y="269" class="st0" width="115" height="30.5"/>
	<circle data-async class="st0" cx="281" cy="284.3" r="3"/>
	<circle class="st0" cx="300" cy="284.3" r="8"/>
	<rect data-async x="202" y="307.5" class="st0" width="115" height="30.5"/>
	<circle data-async class="st0" cx="281" cy="322.8" r="3"/>
	<circle class="st0" cx="300" cy="322.8" r="8"/>
	<rect data-async x="202" y="346" class="st0" width="115" height="30.5"/>
	<circle data-async class="st0" cx="281" cy="361.3" r="3"/>
	<circle class="st0" cx="300" cy="361.3" r="8"/>
	<path data-async class="st0" d="M324.7,288.6c10.5-7.8,23.5-12.4,37.5-12.4c34.7,0,62.8,28.1,62.8,62.8c0,3.8-0.4,7.5-1,11.1
		c5-3.1,10.9-4.8,17.2-4.8c18.4,0,33.3,14.9,33.3,33.3s-14.9,33.3-33.3,33.3h-33.8"/>
	<path class="st0" d="M464.5,378.4c0-12.8-10.4-23.3-23.3-23.3"/>
	<polyline data-async class="st0" points="378.4,304.2 368,313.5 357.6,304.2 	"/>
	<polyline data-async class="st0" points="378.4,319.8 368,329.1 357.6,319.8 	"/>
	<polyline class="st0" points="378.4,335.3 368,344.7 357.6,335.3 	"/>
</g>
<g id="line2">
	<g>
		<circle class="st0" cx="357" cy="71" r="32"/>
		<circle data-async class="st0" cx="357" cy="71" r="21.5"/>
		<circle data-async class="st0" cx="357" cy="71" r="5"/>
		<line data-async class="st0" x1="356.5" y1="55.5" x2="356.5" y2="66"/>
		<line class="st0" x1="362" y1="71" x2="369" y2="71"/>
	</g>
	<g>
		<circle class="st0" cx="407" cy="119.5" r="24"/>
		<circle data-async class="st0" cx="407" cy="119.5" r="11"/>
		<line data-async class="st0" x1="407" y1="130.5" x2="407" y2="143.5"/>
		<line data-async class="st0" x1="397" y1="124" x2="385" y2="128"/>
		<line class="st0" x1="398" y1="113" x2="388.5" y2="106"/>
	</g>
	<path id="XMLID_182_" class="st2" d="M441.1,119.3h65.7c8.8,0,16,7.2,16,16c0,8.8-7.2,16-16,16h-69.4c-8.8,0-16,7.2-16,16
		c0,8.8,7.2,16,16,16l82.1,0c0,0,35.6,1.6,35.6-38.1c0-8.8,0-19.5,0-19.5s0.3-21.1,20-21.1c19.7,0,20.8,17.5,20.8,20.1v27.4v71.4
		l0.1,686.3v20.2c0,0,2.7,32.9-33.9,32.9c-8.1,0-468.5,0-468.5,0"/>
	<circle class="st2" cx="82" cy="963.5" r="9.5"/>
</g>
<g id="border">
	<path class="st2" d="M570.6,923.2c0,5.6-4.5,10.2-10.2,10.2H413.6c-5.6,0-10.2-4.5-10.2-10.2V776.4c0-5.6,4.5-10.2,10.2-10.2h146.8
		c5.6,0,10.2,4.5,10.2,10.2V923.2z"/>
</g>
</svg>
