<?xml version="1.0" encoding="utf-8"?>
<!-- Generator: Adobe Illustrator 21.0.2, SVG Export Plug-In . SVG Version: 6.00 Build 0)  -->
<svg id="Gome8" version="1.1" id="图层_1" xmlns="http://www.w3.org/2000/svg" xmlns:xlink="http://www.w3.org/1999/xlink" x="0px" y="0px"
	 viewBox="0 0 640 1008" style="enable-background:new 0 0 640 1008;" xml:space="preserve">
<style type="text/css">
	.st0{fill:none;stroke:#E60039;stroke-width:3;stroke-linecap:round;stroke-linejoin:round;stroke-miterlimit:10;}
	.st1{fill:none;stroke:#E60039;stroke-width:3;stroke-miterlimit:10;}
	.st2{fill:#C30D23;}
</style>
<line class="st0" x1="308" y1="-67.4" x2="308" y2="55.9"/>
<rect x="300" y="57.1" class="st0" width="15" height="37.5"/>
<path id="XMLID_398_" class="st0" d="M308,95.9v15.9c-6.3,0-11.4,5.1-11.4,11.4s5.1,11.4,11.4,11.4c3.3,0,6.2-1.4,8.3-3.6"/>
<line class="st0" x1="307.5" y1="134.5" x2="307.5" y2="162.4"/>
<path data-async class="st0" d="M137.2,209.6V179c0-9.3,7.5-16.8,16.8-16.8h309.3c9.3,0,16.8,7.5,16.8,16.8v30.5"/>
<path class="st0" d="M137.2,839.4v38.4c0,9.3,7.5,16.8,16.8,16.8h309.3c9.3,0,16.8-7.5,16.8-16.8v-38.4"/>
<g id="inside">
	<circle data-async class="st0" cx="271.4" cy="186.2" r="6.8"/>
	<path class="st0" d="M352.7,186.2L352.7,186.2c0-2.2-1.8-4.1-4.1-4.1h-58.3c-2.2,0-4.1,1.8-4.1,4.1l0,0c0,2.2,1.8,4.1,4.1,4.1h58.3
		C350.9,190.2,352.7,188.4,352.7,186.2z"/>
	<path class="st0" d="M344,866L344,866c0-8.7-7.1-15.8-15.8-15.8H289c-8.7,0-15.8,7.1-15.8,15.8l0,0c0,8.7,7.1,15.8,15.8,15.8h39.3
		C337,881.7,344,874.7,344,866z"/>
</g>
<line class="st0" x1="308" y1="894.1" x2="307" y2="1022.7"/>


</svg>
